<?xml version="1.0" encoding="UTF-8"?>
<!DOCTYPE svg PUBLIC "-//W3C//DTD SVG 1.1//EN" "http://www.w3.org/Graphics/SVG/1.1/DTD/svg11.dtd">
<svg xmlns="http://www.w3.org/2000/svg" version="1.1" width="320px" height="320px" style="shape-rendering:geometricPrecision; text-rendering:geometricPrecision; image-rendering:optimizeQuality; fill-rule:evenodd; clip-rule:evenodd" xmlns:xlink="http://www.w3.org/1999/xlink">
<g><path style="opacity:0.008" fill="#620a61" d="M 131.5,32.5 C 149.995,31.3378 168.662,31.1712 187.5,32C 168.836,32.4999 150.17,32.6666 131.5,32.5 Z"/></g>
<g><path style="opacity:0.004" fill="#000000" d="M 120.5,33.5 C 120.897,32.475 121.563,32.3083 122.5,33C 121.906,33.4643 121.239,33.631 120.5,33.5 Z"/></g>
<g><path style="opacity:0.004" fill="#371536" d="M 131.5,32.5 C 131.5,32.8333 131.5,33.1667 131.5,33.5C 122.167,33.1667 122.167,32.8333 131.5,32.5 Z"/></g>
<g><path style="opacity:0.004" fill="#000000" d="M 188.5,33.5 C 191.304,32.3622 194.304,32.1955 197.5,33C 194.518,33.498 191.518,33.6646 188.5,33.5 Z"/></g>
<g><path style="opacity:0.008" fill="#940d94" d="M 102.5,35.5 C 105.64,34.3592 108.973,34.1925 112.5,35C 109.183,35.4983 105.85,35.665 102.5,35.5 Z"/></g>
<g><path style="opacity:0.008" fill="#681068" d="M 215.5,35.5 C 212.15,35.665 208.817,35.4983 205.5,35C 209.027,34.1925 212.36,34.3592 215.5,35.5 Z"/></g>
<g><path style="opacity:0.012" fill="#660466" d="M 102.5,35.5 C 102.5,35.8333 102.5,36.1667 102.5,36.5C 90.5,36.1667 90.5,35.8333 102.5,35.5 Z"/></g>
<g><path style="opacity:0.012" fill="#4b094a" d="M 215.5,36.5 C 215.5,36.1667 215.5,35.8333 215.5,35.5C 228.833,35.8333 228.833,36.1667 215.5,36.5 Z"/></g>
<g><path style="opacity:1" fill="#6a1e66" d="M 131.5,33.5 C 150.5,33.5 169.5,33.5 188.5,33.5C 197.348,33.9299 206.348,34.9299 215.5,36.5C 218.287,37.4767 221.287,37.81 224.5,37.5C 226.831,39.0848 229.497,40.2514 232.5,41C 231.421,41.956 230.255,42.7894 229,43.5C 228,43.1667 227,42.8333 226,42.5C 224.795,43.0712 223.628,43.7379 222.5,44.5C 222.624,45.1067 222.957,45.44 223.5,45.5C 223.833,46.1667 224.167,46.8333 224.5,47.5C 223.883,47.6107 223.383,47.944 223,48.5C 222.252,46.6675 221.252,45.0009 220,43.5C 215.921,44.6295 211.755,44.7961 207.5,44C 210.882,43.8236 214.215,43.3236 217.5,42.5C 217.376,41.8933 217.043,41.56 216.5,41.5C 206.901,38.6604 198.567,40.6604 191.5,47.5C 183.245,58.7396 177.578,71.2396 174.5,85C 171.632,89.0329 168.298,92.5329 164.5,95.5C 162.83,95.7512 161.33,96.4178 160,97.5C 159.199,89.0881 159.366,80.7548 160.5,72.5C 173.178,65.2103 175.511,55.5436 167.5,43.5C 165.067,41.9462 162.4,41.2796 159.5,41.5C 159.5,42.8333 159.5,44.1667 159.5,45.5C 159.167,45.5 158.833,45.5 158.5,45.5C 154.591,44.4239 150.924,44.4239 147.5,45.5C 150.723,42.1119 154.723,40.4453 159.5,40.5C 159.5,39.1667 159.5,37.8333 159.5,36.5C 131.776,36.586 104.442,39.4193 77.5,45C 76.1693,62.9311 76.1693,80.7644 77.5,98.5C 77.5,100.833 77.5,103.167 77.5,105.5C 77.6664,113.174 77.4997,120.841 77,128.5C 76.2964,116.835 75.6297,105.169 75,93.5C 74.7216,94.4158 74.2216,95.0825 73.5,95.5C 72.1667,77.5 72.1667,59.5 73.5,41.5C 76.5983,41.5875 76.9316,41.0875 74.5,40C 84.0292,39.2314 93.3626,38.0647 102.5,36.5C 106.182,36.6653 109.848,36.4986 113.5,36C 114,35.5 114.5,35 115,34.5C 117.913,34.3597 120.913,34.693 124,35.5C 126.669,34.9839 129.169,34.3173 131.5,33.5 Z"/></g>
<g><path style="opacity:0.008" fill="#820662" d="M 232.5,38.5 C 234.628,37.3709 236.961,37.2042 239.5,38C 237.19,38.4966 234.857,38.6633 232.5,38.5 Z"/></g>
<g><path style="opacity:1" fill="#d6a73f" d="M 158.5,45.5 C 159.117,51.5982 158.45,57.2649 156.5,62.5C 155.834,59.9723 155.168,57.3056 154.5,54.5C 150.292,50.5752 146.125,50.5752 142,54.5C 141.667,59.5 141.333,64.5 141,69.5C 139.667,70.8333 138.333,70.8333 137,69.5C 138.947,58.6161 134.447,53.6161 123.5,54.5C 118.572,54.1449 114.239,55.4782 110.5,58.5C 109.667,70.4861 109.167,82.4861 109,94.5C 107.89,96.0368 106.39,96.7035 104.5,96.5C 104.719,95.325 104.386,94.325 103.5,93.5C 101.75,97.6758 102.75,101.009 106.5,103.5C 107.429,104.689 107.762,106.022 107.5,107.5C 102.218,108.053 99.0512,105.719 98,100.5C 97.6667,83.8333 97.3333,67.1667 97,50.5C 91.5884,45.1439 86.4218,45.4772 81.5,51.5C 80.0348,55.0991 80.3682,58.4324 82.5,61.5C 81.5041,61.5858 80.6708,61.2524 80,60.5C 79.8214,57.4465 79.3214,54.4465 78.5,51.5C 77.5006,67.1525 77.1673,82.8192 77.5,98.5C 76.1693,80.7644 76.1693,62.9311 77.5,45C 104.442,39.4193 131.776,36.586 159.5,36.5C 159.5,37.8333 159.5,39.1667 159.5,40.5C 154.723,40.4453 150.723,42.1119 147.5,45.5C 150.924,44.4239 154.591,44.4239 158.5,45.5 Z"/></g>
<g><path style="opacity:0.008" fill="#710071" d="M 242.5,40.5 C 242.897,39.475 243.563,39.3083 244.5,40C 243.906,40.4643 243.239,40.631 242.5,40.5 Z"/></g>
<g><path style="opacity:1" fill="#d6a63f" d="M 160.5,72.5 C 159.01,69.0208 159.343,65.6875 161.5,62.5C 163.122,59.5926 164.455,56.5926 165.5,53.5C 165.028,49.6941 163.028,47.0274 159.5,45.5C 159.5,44.1667 159.5,42.8333 159.5,41.5C 162.4,41.2796 165.067,41.9462 167.5,43.5C 175.511,55.5436 173.178,65.2103 160.5,72.5 Z"/></g>
<g><path style="opacity:0.004" fill="#e113e0" d="M 71.5,41.5 C 72.6517,46.9846 72.8184,52.6513 72,58.5C 71.5006,52.8431 71.3339,47.1764 71.5,41.5 Z"/></g>
<g><path style="opacity:1" fill="#6d1f67" d="M 216.5,41.5 C 217.043,41.56 217.376,41.8933 217.5,42.5C 214.215,43.3236 210.882,43.8236 207.5,44C 211.755,44.7961 215.921,44.6295 220,43.5C 221.252,45.0009 222.252,46.6675 223,48.5C 223.383,47.944 223.883,47.6107 224.5,47.5C 226.554,52.5522 227.054,57.8855 226,63.5C 225.326,64.5784 224.326,65.2451 223,65.5C 220.825,65.1661 218.992,64.1661 217.5,62.5C 215.627,68.2432 217.627,71.5766 223.5,72.5C 222.961,75.6962 221.294,78.0295 218.5,79.5C 216.064,78.8999 214.398,77.3999 213.5,75C 212.551,74.3828 211.718,74.5494 211,75.5C 209.429,81.3732 211.596,84.7066 217.5,85.5C 216.041,87.583 214.708,89.7497 213.5,92C 208.848,93.1603 206.848,91.3269 207.5,86.5C 206.5,86.5 205.5,86.5 204.5,86.5C 203.671,89.4686 203.505,92.4686 204,95.5C 205.44,97.0456 207.273,97.879 209.5,98C 207.302,100.623 204.802,102.789 202,104.5C 199.087,102.86 197.254,100.36 196.5,97C 195.551,96.3828 194.718,96.5494 194,97.5C 192.787,100.768 192.454,104.101 193,107.5C 194.6,108.866 196.433,109.866 198.5,110.5C 189.808,118.344 184.975,116.344 184,104.5C 179.313,107.847 177.48,112.18 178.5,117.5C 179.881,119.691 181.881,121.024 184.5,121.5C 183.24,122.382 182.074,123.382 181,124.5C 181.277,137.699 175.11,145.699 162.5,148.5C 161.5,148.5 160.5,148.5 159.5,148.5C 159.5,145.5 159.5,142.5 159.5,139.5C 161.483,139.843 162.817,139.176 163.5,137.5C 170.354,136.037 173.688,131.703 173.5,124.5C 173.511,115.183 168.844,111.183 159.5,112.5C 159.5,111.167 159.5,109.833 159.5,108.5C 159.833,107.833 160.167,107.167 160.5,106.5C 166.163,103.781 172.163,101.947 178.5,101C 187.206,97.3181 194.873,92.1515 201.5,85.5C 203.156,83.5878 203.489,81.5878 202.5,79.5C 196.898,82.9721 190.898,85.3054 184.5,86.5C 184.317,84.0637 184.984,81.897 186.5,80C 193.464,76.8987 200.13,73.232 206.5,69C 208.312,67.3731 208.479,65.8731 207,64.5C 203.627,65.6212 200.461,67.1212 197.5,69C 195.19,69.4966 192.857,69.6633 190.5,69.5C 190.269,66.2155 191.603,63.7155 194.5,62C 200.226,60.3034 205.559,57.8034 210.5,54.5C 211.386,53.675 211.719,52.675 211.5,51.5C 206.925,52.1018 202.425,53.1018 198,54.5C 197.5,54.1667 197,53.8333 196.5,53.5C 198.148,48.5186 201.481,45.1853 206.5,43.5C 209.977,42.8328 213.311,42.1661 216.5,41.5 Z"/></g>
<g><path style="opacity:1" fill="#d6a73f" d="M 216.5,41.5 C 213.311,42.1661 209.977,42.8328 206.5,43.5C 201.481,45.1853 198.148,48.5186 196.5,53.5C 197,53.8333 197.5,54.1667 198,54.5C 202.425,53.1018 206.925,52.1018 211.5,51.5C 211.719,52.675 211.386,53.675 210.5,54.5C 205.559,57.8034 200.226,60.3034 194.5,62C 191.603,63.7155 190.269,66.2155 190.5,69.5C 192.857,69.6633 195.19,69.4966 197.5,69C 200.461,67.1212 203.627,65.6212 207,64.5C 208.479,65.8731 208.312,67.3731 206.5,69C 200.13,73.232 193.464,76.8987 186.5,80C 184.984,81.897 184.317,84.0637 184.5,86.5C 190.898,85.3054 196.898,82.9721 202.5,79.5C 203.489,81.5878 203.156,83.5878 201.5,85.5C 194.873,92.1515 187.206,97.3181 178.5,101C 172.163,101.947 166.163,103.781 160.5,106.5C 159.2,103.976 159.2,101.309 160.5,98.5C 162.261,97.9649 163.594,96.9649 164.5,95.5C 168.298,92.5329 171.632,89.0329 174.5,85C 177.578,71.2396 183.245,58.7396 191.5,47.5C 198.567,40.6604 206.901,38.6604 216.5,41.5 Z"/></g>
<g><path style="opacity:0.012" fill="#5d035c" d="M 246.5,92.5 C 246.333,75.83 246.5,59.1633 247,42.5C 247.828,59.3384 247.662,76.0051 246.5,92.5 Z"/></g>
<g><path style="opacity:1" fill="#6d2066" d="M 159.5,45.5 C 163.028,47.0274 165.028,49.6941 165.5,53.5C 164.455,56.5926 163.122,59.5926 161.5,62.5C 159.55,57.2649 158.883,51.5982 159.5,45.5 Z"/></g>
<g><path style="opacity:1" fill="#d6a73f" d="M 223.5,45.5 C 226.713,46.164 228.879,48.164 230,51.5C 231.126,55.749 231.792,60.0823 232,64.5C 232.333,64.8333 232.667,65.1667 233,65.5C 234.019,64.3128 235.186,63.3128 236.5,62.5C 238.012,66.0926 237.178,69.0926 234,71.5C 233.501,76.8229 233.334,82.1563 233.5,87.5C 235.661,87.1742 237.494,86.1742 239,84.5C 239.667,86.1667 239.667,87.8333 239,89.5C 232.823,94.8662 230.99,101.533 233.5,109.5C 234.85,108.05 236.516,107.383 238.5,107.5C 238.657,108.873 238.49,110.207 238,111.5C 236.227,114.06 234.227,116.393 232,118.5C 231.333,122.5 231.333,126.5 232,130.5C 235.701,127.617 237.035,128.617 236,133.5C 234.066,135.943 231.566,137.276 228.5,137.5C 228.221,142.227 227.554,146.893 226.5,151.5C 228.512,150.986 230.512,150.82 232.5,151C 231.809,152.067 231.309,153.234 231,154.5C 228.333,156.5 225.667,158.5 223,160.5C 220.483,164.184 218.65,168.184 217.5,172.5C 219.167,172.5 220.833,172.5 222.5,172.5C 221.969,174.624 220.635,176.124 218.5,177C 213.648,176.807 209.315,178.14 205.5,181C 195.668,182.405 189.335,178.238 186.5,168.5C 188.865,161.468 193.532,156.801 200.5,154.5C 207.096,156.348 209.596,160.681 208,167.5C 206.418,169.711 204.251,171.045 201.5,171.5C 197.976,170.95 196.976,169.116 198.5,166C 200.134,165.506 201.801,165.34 203.5,165.5C 204.158,161.323 202.492,159.823 198.5,161C 191.331,167.141 191.998,171.974 200.5,175.5C 203.781,175.109 206.615,173.776 209,171.5C 213.51,165.48 216.676,158.814 218.5,151.5C 216.56,148.804 217.227,147.471 220.5,147.5C 219.669,144.327 219.669,141.327 220.5,138.5C 221.325,137.614 222.325,137.281 223.5,137.5C 224.293,133.787 224.293,130.12 223.5,126.5C 222.914,126.709 222.414,127.043 222,127.5C 221.814,129.9 221.314,132.234 220.5,134.5C 219.914,134.291 219.414,133.957 219,133.5C 218.64,135.421 217.806,137.088 216.5,138.5C 215.833,137.833 215.167,137.167 214.5,136.5C 213.833,138.167 213.167,139.833 212.5,141.5C 211.833,141.167 211.167,140.833 210.5,140.5C 209.684,142.287 208.684,143.954 207.5,145.5C 206.522,145.023 205.689,144.357 205,143.5C 204.846,146.525 203.346,148.191 200.5,148.5C 200.719,147.325 200.386,146.325 199.5,145.5C 196.875,146.764 194.208,147.931 191.5,149C 190.299,149.903 189.465,151.069 189,152.5C 188.498,159.028 186.498,165.028 183,170.5C 179.229,175.107 174.396,177.773 168.5,178.5C 170.011,185.159 168.011,190.326 162.5,194C 167.833,194.667 173.167,194.667 178.5,194C 182.571,192.249 184.571,189.082 184.5,184.5C 188.24,187.633 189.407,191.633 188,196.5C 186.924,199.079 185.091,200.746 182.5,201.5C 174.833,201.5 167.167,201.5 159.5,201.5C 159.5,187.5 159.5,173.5 159.5,159.5C 163.846,159.666 168.179,159.499 172.5,159C 173.685,157.647 175.019,156.48 176.5,155.5C 174.955,154.548 173.288,154.215 171.5,154.5C 167.5,154.5 163.5,154.5 159.5,154.5C 159.5,152.833 159.5,151.167 159.5,149.5C 160.791,149.737 161.791,149.404 162.5,148.5C 175.11,145.699 181.277,137.699 181,124.5C 182.074,123.382 183.24,122.382 184.5,121.5C 181.881,121.024 179.881,119.691 178.5,117.5C 177.48,112.18 179.313,107.847 184,104.5C 184.975,116.344 189.808,118.344 198.5,110.5C 196.433,109.866 194.6,108.866 193,107.5C 192.454,104.101 192.787,100.768 194,97.5C 194.718,96.5494 195.551,96.3828 196.5,97C 197.254,100.36 199.087,102.86 202,104.5C 204.802,102.789 207.302,100.623 209.5,98C 207.273,97.879 205.44,97.0456 204,95.5C 203.505,92.4686 203.671,89.4686 204.5,86.5C 205.5,86.5 206.5,86.5 207.5,86.5C 206.848,91.3269 208.848,93.1603 213.5,92C 214.708,89.7497 216.041,87.583 217.5,85.5C 211.596,84.7066 209.429,81.3732 211,75.5C 211.718,74.5494 212.551,74.3828 213.5,75C 214.398,77.3999 216.064,78.8999 218.5,79.5C 221.294,78.0295 222.961,75.6962 223.5,72.5C 217.627,71.5766 215.627,68.2432 217.5,62.5C 218.992,64.1661 220.825,65.1661 223,65.5C 224.326,65.2451 225.326,64.5784 226,63.5C 227.054,57.8855 226.554,52.5522 224.5,47.5C 224.167,46.8333 223.833,46.1667 223.5,45.5 Z"/></g>
<g><path style="opacity:0.004" fill="#000000" d="M 70.5,59.5 C 71.6525,65.3188 71.8192,71.3188 71,77.5C 70.5005,71.5092 70.3338,65.5092 70.5,59.5 Z"/></g>
<g><path style="opacity:1" fill="#daac3d" d="M 82.5,61.5 C 84.1992,61.6602 85.8659,61.4935 87.5,61C 85.8078,59.5993 85.1412,57.7659 85.5,55.5C 87.5,55.5 89.5,55.5 91.5,55.5C 91.5,70.1667 91.5,84.8333 91.5,99.5C 86.3276,100.24 84.4942,103.24 86,108.5C 86.6667,109.167 87.3333,109.833 88,110.5C 88.4935,108.866 88.6602,107.199 88.5,105.5C 90.1992,105.34 91.8659,105.506 93.5,106C 96.328,111.914 100.995,114.414 107.5,113.5C 105.18,116.864 103.18,120.531 101.5,124.5C 100.833,129.167 100.167,133.833 99.5,138.5C 99.5,137.5 99.5,136.5 99.5,135.5C 93.4759,136.548 88.8092,139.548 85.5,144.5C 84.1667,144.5 82.8333,144.5 81.5,144.5C 81.8439,139.878 81.1773,135.545 79.5,131.5C 79.1233,122.662 78.4566,113.995 77.5,105.5C 77.5,103.167 77.5,100.833 77.5,98.5C 77.1673,82.8192 77.5006,67.1525 78.5,51.5C 79.3214,54.4465 79.8214,57.4465 80,60.5C 80.6708,61.2524 81.5041,61.5858 82.5,61.5 Z"/></g>
<g><path style="opacity:1" fill="#d7a83f" d="M 155.5,74.5 C 156.5,74.5 157.5,74.5 158.5,74.5C 158.802,82.9183 158.469,91.2517 157.5,99.5C 137.608,105.788 132.942,117.955 143.5,136C 145.025,137.009 146.692,137.509 148.5,137.5C 148.611,138.117 148.944,138.617 149.5,139C 152.482,139.498 155.482,139.665 158.5,139.5C 158.5,142.5 158.5,145.5 158.5,148.5C 152.5,148.5 146.5,148.5 140.5,148.5C 128.597,145.275 123.597,137.608 125.5,125.5C 127.44,122.389 130.107,120.222 133.5,119C 132.672,118.085 131.672,117.419 130.5,117C 124.457,116.376 118.79,115.209 113.5,113.5C 113.042,108.134 113.709,102.967 115.5,98C 118.178,95.5537 121.178,95.0537 124.5,96.5C 126.864,101.665 125.197,104.332 119.5,104.5C 119.901,106.434 120.901,107.934 122.5,109C 130.653,110.924 136.32,108.09 139.5,100.5C 140.489,96.8927 140.823,93.226 140.5,89.5C 139.5,89.5 138.5,89.5 137.5,89.5C 138.188,94.1361 136.355,97.1361 132,98.5C 129.717,98.0505 128.217,96.7172 127.5,94.5C 133.978,92.6449 135.144,88.9782 131,83.5C 130.997,87.8822 128.831,89.5489 124.5,88.5C 124.022,85.7224 125.022,83.7224 127.5,82.5C 123.028,80.7171 120.361,82.2171 119.5,87C 120.148,88.4397 120.481,89.9397 120.5,91.5C 118.278,91.822 116.444,91.1554 115,89.5C 114.168,81.4792 114.335,73.4792 115.5,65.5C 117.536,63.6554 119.87,63.1554 122.5,64C 124.155,65.4443 124.822,67.2776 124.5,69.5C 123.022,69.238 121.689,69.5713 120.5,70.5C 120.709,71.086 121.043,71.586 121.5,72C 127.911,74.232 130.578,72.0653 129.5,65.5C 130.5,65.5 131.5,65.5 132.5,65.5C 132.334,70.8437 132.501,76.1771 133,81.5C 136.257,84.4285 140.091,85.2618 144.5,84C 145,83.5 145.5,83 146,82.5C 147.097,76.6939 147.931,70.8606 148.5,65C 149.996,64.4926 151.163,64.9926 152,66.5C 152.43,69.1922 152.263,71.8589 151.5,74.5C 152.833,74.5 154.167,74.5 155.5,74.5 Z"/></g>
<g><path style="opacity:1" fill="#b48051" d="M 158.5,45.5 C 158.833,45.5 159.167,45.5 159.5,45.5C 158.883,51.5982 159.55,57.2649 161.5,62.5C 159.343,65.6875 159.01,69.0208 160.5,72.5C 159.366,80.7548 159.199,89.0881 160,97.5C 161.33,96.4178 162.83,95.7512 164.5,95.5C 163.594,96.9649 162.261,97.9649 160.5,98.5C 159.2,101.309 159.2,103.976 160.5,106.5C 160.167,107.167 159.833,107.833 159.5,108.5C 158.833,108.5 158.167,108.5 157.5,108.5C 158.775,105.396 158.775,102.396 157.5,99.5C 158.469,91.2517 158.802,82.9183 158.5,74.5C 157.5,74.5 156.5,74.5 155.5,74.5C 157.964,73.1734 158.964,71.0067 158.5,68C 158.302,65.8794 157.636,64.0461 156.5,62.5C 158.45,57.2649 159.117,51.5982 158.5,45.5 Z"/></g>
<g><path style="opacity:1" fill="#6e2066" d="M 156.5,62.5 C 157.636,64.0461 158.302,65.8794 158.5,68C 158.964,71.0067 157.964,73.1734 155.5,74.5C 154.167,74.5 152.833,74.5 151.5,74.5C 152.263,71.8589 152.43,69.1922 152,66.5C 151.163,64.9926 149.996,64.4926 148.5,65C 147.931,70.8606 147.097,76.6939 146,82.5C 145.5,83 145,83.5 144.5,84C 140.091,85.2618 136.257,84.4285 133,81.5C 132.501,76.1771 132.334,70.8437 132.5,65.5C 131.5,65.5 130.5,65.5 129.5,65.5C 130.578,72.0653 127.911,74.232 121.5,72C 121.043,71.586 120.709,71.086 120.5,70.5C 121.689,69.5713 123.022,69.238 124.5,69.5C 124.822,67.2776 124.155,65.4443 122.5,64C 119.87,63.1554 117.536,63.6554 115.5,65.5C 114.335,73.4792 114.168,81.4792 115,89.5C 116.444,91.1554 118.278,91.822 120.5,91.5C 120.481,89.9397 120.148,88.4397 119.5,87C 120.361,82.2171 123.028,80.7171 127.5,82.5C 125.022,83.7224 124.022,85.7224 124.5,88.5C 128.831,89.5489 130.997,87.8822 131,83.5C 135.144,88.9782 133.978,92.6449 127.5,94.5C 128.217,96.7172 129.717,98.0505 132,98.5C 136.355,97.1361 138.188,94.1361 137.5,89.5C 138.5,89.5 139.5,89.5 140.5,89.5C 140.823,93.226 140.489,96.8927 139.5,100.5C 136.32,108.09 130.653,110.924 122.5,109C 120.901,107.934 119.901,106.434 119.5,104.5C 125.197,104.332 126.864,101.665 124.5,96.5C 121.178,95.0537 118.178,95.5537 115.5,98C 113.709,102.967 113.042,108.134 113.5,113.5C 111.836,112.051 111.002,110.051 111,107.5C 107.867,107.913 105.367,109.413 103.5,112C 105.058,112.21 106.391,112.71 107.5,113.5C 100.995,114.414 96.328,111.914 93.5,106C 91.8659,105.506 90.1992,105.34 88.5,105.5C 88.6602,107.199 88.4935,108.866 88,110.5C 87.3333,109.833 86.6667,109.167 86,108.5C 84.4942,103.24 86.3276,100.24 91.5,99.5C 91.5,84.8333 91.5,70.1667 91.5,55.5C 89.5,55.5 87.5,55.5 85.5,55.5C 85.1412,57.7659 85.8078,59.5993 87.5,61C 85.8659,61.4935 84.1992,61.6602 82.5,61.5C 80.3682,58.4324 80.0348,55.0991 81.5,51.5C 86.4218,45.4772 91.5884,45.1439 97,50.5C 97.3333,67.1667 97.6667,83.8333 98,100.5C 99.0512,105.719 102.218,108.053 107.5,107.5C 107.762,106.022 107.429,104.689 106.5,103.5C 102.75,101.009 101.75,97.6758 103.5,93.5C 104.386,94.325 104.719,95.325 104.5,96.5C 106.39,96.7035 107.89,96.0368 109,94.5C 109.167,82.4861 109.667,70.4861 110.5,58.5C 114.239,55.4782 118.572,54.1449 123.5,54.5C 134.447,53.6161 138.947,58.6161 137,69.5C 138.333,70.8333 139.667,70.8333 141,69.5C 141.333,64.5 141.667,59.5 142,54.5C 146.125,50.5752 150.292,50.5752 154.5,54.5C 155.168,57.3056 155.834,59.9723 156.5,62.5 Z"/></g>
<g><path style="opacity:0.004" fill="#6b1b6c" d="M 71.5,78.5 C 72.2119,88.6851 72.8785,99.0184 73.5,109.5C 73.4435,110.737 72.9435,111.737 72,112.5C 71.5754,101.387 71.4088,90.0541 71.5,78.5 Z"/></g>
<g><path style="opacity:1" fill="#6d2067" d="M 157.5,99.5 C 158.775,102.396 158.775,105.396 157.5,108.5C 146.868,111.763 143.868,118.43 148.5,128.5C 148.918,129.222 149.584,129.722 150.5,130C 153.146,130.497 155.813,130.664 158.5,130.5C 158.5,133.167 158.5,135.833 158.5,138.5C 155.098,138.658 151.764,138.324 148.5,137.5C 146.692,137.509 145.025,137.009 143.5,136C 132.942,117.955 137.608,105.788 157.5,99.5 Z"/></g>
<g><path style="opacity:0.016" fill="#591054" d="M 245.5,92.5 C 245.833,92.5 246.167,92.5 246.5,92.5C 246.167,128.5 245.833,128.5 245.5,92.5 Z"/></g>
<g><path style="opacity:1" fill="#6f2166" d="M 226.5,81.5 C 228.613,102.318 221.613,119.485 205.5,133C 199.875,135.948 194.375,139.115 189,142.5C 189.031,139.134 190.864,137.3 194.5,137C 197.142,134.585 197.809,131.751 196.5,128.5C 194.929,127.691 193.262,127.357 191.5,127.5C 191.5,129.5 191.5,131.5 191.5,133.5C 187.19,132.098 186.523,129.598 189.5,126C 193.412,124.245 197.412,124.079 201.5,125.5C 200.975,120.882 202.308,119.882 205.5,122.5C 206.578,120.525 206.245,118.692 204.5,117C 205.899,116.405 207.232,116.572 208.5,117.5C 209.167,115.5 209.833,113.5 210.5,111.5C 211.891,112.645 213.224,112.645 214.5,111.5C 213.691,109.929 213.357,108.262 213.5,106.5C 214.833,106.5 216.167,106.5 217.5,106.5C 217.5,104.833 217.5,103.167 217.5,101.5C 218.833,101.5 220.167,101.5 221.5,101.5C 221.579,100.07 221.246,98.7362 220.5,97.5C 221.689,96.5713 223.022,96.238 224.5,96.5C 224.277,94.6583 223.943,92.825 223.5,91C 224.654,87.865 225.654,84.6983 226.5,81.5 Z"/></g>
<g><path style="opacity:0.004" fill="#000000" d="M 73.5,116.5 C 72.475,116.103 72.3083,115.437 73,114.5C 73.4643,115.094 73.631,115.761 73.5,116.5 Z"/></g>
<g><path style="opacity:1" fill="#d8a83f" d="M 157.5,108.5 C 158.167,108.5 158.833,108.5 159.5,108.5C 159.5,109.833 159.5,111.167 159.5,112.5C 168.844,111.183 173.511,115.183 173.5,124.5C 173.688,131.703 170.354,136.037 163.5,137.5C 162.167,137.5 160.833,137.5 159.5,137.5C 159.5,135.167 159.5,132.833 159.5,130.5C 161.781,130.923 163.448,130.256 164.5,128.5C 167.156,124.876 167.156,121.209 164.5,117.5C 163.081,116.549 161.415,116.216 159.5,116.5C 159.737,115.209 159.404,114.209 158.5,113.5C 155.467,114.532 153.467,116.532 152.5,119.5C 151.549,120.919 151.216,122.585 151.5,124.5C 152.5,124.5 153.5,124.5 154.5,124.5C 154.992,122.159 156.159,120.159 158,118.5C 158.499,122.152 158.665,125.818 158.5,129.5C 155.14,129.384 151.807,129.051 148.5,128.5C 143.868,118.43 146.868,111.763 157.5,108.5 Z"/></g>
<g><path style="opacity:1" fill="#722461" d="M 158.5,113.5 C 157.2,116.757 155.366,119.757 153,122.5C 152.517,121.552 152.351,120.552 152.5,119.5C 153.467,116.532 155.467,114.532 158.5,113.5 Z"/></g>
<g><path style="opacity:1" fill="#691b67" d="M 164.5,117.5 C 167.156,121.209 167.156,124.876 164.5,128.5C 162.883,129.038 161.216,129.371 159.5,129.5C 159.5,125.5 159.5,121.5 159.5,117.5C 161.167,117.5 162.833,117.5 164.5,117.5 Z"/></g>
<g><path style="opacity:0.004" fill="#000000" d="M 244.5,120.5 C 245.598,121.601 245.765,122.934 245,124.5C 244.51,123.207 244.343,121.873 244.5,120.5 Z"/></g>
<g><path style="opacity:1" fill="#b37c4d" d="M 158.5,113.5 C 159.404,114.209 159.737,115.209 159.5,116.5C 161.415,116.216 163.081,116.549 164.5,117.5C 162.833,117.5 161.167,117.5 159.5,117.5C 159.5,121.5 159.5,125.5 159.5,129.5C 161.216,129.371 162.883,129.038 164.5,128.5C 163.448,130.256 161.781,130.923 159.5,130.5C 159.5,132.833 159.5,135.167 159.5,137.5C 160.833,137.5 162.167,137.5 163.5,137.5C 162.817,139.176 161.483,139.843 159.5,139.5C 159.5,142.5 159.5,145.5 159.5,148.5C 160.5,148.5 161.5,148.5 162.5,148.5C 161.791,149.404 160.791,149.737 159.5,149.5C 159.5,151.167 159.5,152.833 159.5,154.5C 163.5,154.5 167.5,154.5 171.5,154.5C 167.702,155.483 163.702,155.817 159.5,155.5C 152.443,155.24 145.443,155.573 138.5,156.5C 138.611,155.883 138.944,155.383 139.5,155C 145.825,154.5 152.158,154.334 158.5,154.5C 158.5,152.833 158.5,151.167 158.5,149.5C 152.289,150.915 146.289,150.582 140.5,148.5C 146.5,148.5 152.5,148.5 158.5,148.5C 158.5,145.5 158.5,142.5 158.5,139.5C 155.482,139.665 152.482,139.498 149.5,139C 148.944,138.617 148.611,138.117 148.5,137.5C 151.764,138.324 155.098,138.658 158.5,138.5C 158.5,135.833 158.5,133.167 158.5,130.5C 155.813,130.664 153.146,130.497 150.5,130C 149.584,129.722 148.918,129.222 148.5,128.5C 151.807,129.051 155.14,129.384 158.5,129.5C 158.665,125.818 158.499,122.152 158,118.5C 156.159,120.159 154.992,122.159 154.5,124.5C 153.5,124.5 152.5,124.5 151.5,124.5C 151.216,122.585 151.549,120.919 152.5,119.5C 152.351,120.552 152.517,121.552 153,122.5C 155.366,119.757 157.2,116.757 158.5,113.5 Z"/></g>
<g><path style="opacity:0.004" fill="#000000" d="M 243.5,129.5 C 244.622,131.288 244.789,133.288 244,135.5C 243.505,133.527 243.338,131.527 243.5,129.5 Z"/></g>
<g><path style="opacity:0.008" fill="#6d0c6c" d="M 242.5,145.5 C 242.335,142.482 242.502,139.482 243,136.5C 243.805,139.696 243.638,142.696 242.5,145.5 Z"/></g>
<g><path style="opacity:0.012" fill="#56065c" d="M 74.5,134.5 C 74.8333,134.5 75.1667,134.5 75.5,134.5C 75.5,137.833 75.5,141.167 75.5,144.5C 74.5206,141.375 74.1872,138.042 74.5,134.5 Z"/></g>
<g><path style="opacity:0.012" fill="#6a046a" d="M 75.5,144.5 C 75.8333,144.5 76.1667,144.5 76.5,144.5C 76.1667,155.167 75.8333,155.167 75.5,144.5 Z"/></g>
<g><path style="opacity:1" fill="#6b1d68" d="M 113.5,113.5 C 118.79,115.209 124.457,116.376 130.5,117C 131.672,117.419 132.672,118.085 133.5,119C 130.107,120.222 127.44,122.389 125.5,125.5C 123.597,137.608 128.597,145.275 140.5,148.5C 146.289,150.582 152.289,150.915 158.5,149.5C 158.5,151.167 158.5,152.833 158.5,154.5C 152.158,154.334 145.825,154.5 139.5,155C 138.944,155.383 138.611,155.883 138.5,156.5C 135.023,158.82 134.523,161.82 137,165.5C 142.261,167.575 143.428,166.408 140.5,162C 140.645,161.228 140.978,160.561 141.5,160C 147.157,159.501 152.824,159.334 158.5,159.5C 158.5,173.5 158.5,187.5 158.5,201.5C 154.062,200.425 152.062,202.092 152.5,206.5C 151.173,209.657 148.84,210.824 145.5,210C 146.516,209.481 147.182,208.647 147.5,207.5C 146.326,202.448 143.326,200.781 138.5,202.5C 136.844,206.91 137.51,210.91 140.5,214.5C 137.795,214.998 135.462,213.998 133.5,211.5C 131.973,208.34 131.307,205.007 131.5,201.5C 127.024,201.822 125.524,204.156 127,208.5C 129.14,209.798 128.974,210.465 126.5,210.5C 122.946,208.779 121.279,205.946 121.5,202C 121.905,195.937 125.239,193.437 131.5,194.5C 132.096,187.043 136.096,183.543 143.5,184C 140.636,186.913 139.636,190.247 140.5,194C 145.287,194.879 149.953,194.545 154.5,193C 157.486,187.602 156.486,182.936 151.5,179C 142.833,178.667 134.167,178.333 125.5,178C 116.577,177.076 110.577,172.409 107.5,164C 107.82,162.347 108.82,161.347 110.5,161C 113.882,160.824 117.215,160.324 120.5,159.5C 106.855,157.843 98.5212,163.843 95.5,177.5C 86.3179,162.955 89.9846,154.122 106.5,151C 112.538,150.529 118.538,150.529 124.5,151C 123.328,150.581 122.328,149.915 121.5,149C 115.19,148.626 109.024,148.46 103,148.5C 101.836,140.541 101.336,132.541 101.5,124.5C 103.18,120.531 105.18,116.864 107.5,113.5C 106.391,112.71 105.058,112.21 103.5,112C 105.367,109.413 107.867,107.913 111,107.5C 111.002,110.051 111.836,112.051 113.5,113.5 Z"/></g>
<g><path style="opacity:1" fill="#bf8849" d="M 108.5,121.5 C 116.933,120.417 119.266,123.584 115.5,131C 107.189,132.208 104.856,129.041 108.5,121.5 Z"/></g>
<g><path style="opacity:1" fill="#6f2065" d="M 110.5,122.5 C 114.976,122.8 116.31,124.967 114.5,129C 109.57,129.427 108.237,127.26 110.5,122.5 Z"/></g>
<g><path style="opacity:0.99" fill="#6a1f66" d="M 224.5,37.5 C 227.096,38.2653 229.763,38.5987 232.5,38.5C 235.725,39.2368 239.059,39.9035 242.5,40.5C 243.209,41.404 244.209,41.7373 245.5,41.5C 245.5,58.5 245.5,75.5 245.5,92.5C 244.506,101.652 244.173,110.985 244.5,120.5C 242.787,126.911 241.787,133.578 241.5,140.5C 241.507,142.369 241.84,144.036 242.5,145.5C 242.802,148.059 242.468,150.393 241.5,152.5C 241.167,144.5 240.833,144.5 240.5,152.5C 239.549,153.919 239.216,155.585 239.5,157.5C 238.833,160.833 238.167,164.167 237.5,167.5C 237.167,162.167 236.833,162.167 236.5,167.5C 235.596,168.209 235.263,169.209 235.5,170.5C 234.662,170.842 234.328,171.508 234.5,172.5C 234.167,172.5 233.833,172.5 233.5,172.5C 232.566,173.568 232.232,174.901 232.5,176.5C 230.45,176.039 228.45,175.372 226.5,174.5C 225.289,173.726 225.289,172.893 226.5,172C 224,170.833 222.167,169 221,166.5C 218.855,169.2 219.355,171.2 222.5,172.5C 220.833,172.5 219.167,172.5 217.5,172.5C 218.65,168.184 220.483,164.184 223,160.5C 225.667,158.5 228.333,156.5 231,154.5C 231.309,153.234 231.809,152.067 232.5,151C 230.512,150.82 228.512,150.986 226.5,151.5C 227.554,146.893 228.221,142.227 228.5,137.5C 231.566,137.276 234.066,135.943 236,133.5C 237.035,128.617 235.701,127.617 232,130.5C 231.333,126.5 231.333,122.5 232,118.5C 234.227,116.393 236.227,114.06 238,111.5C 238.49,110.207 238.657,108.873 238.5,107.5C 236.516,107.383 234.85,108.05 233.5,109.5C 230.99,101.533 232.823,94.8662 239,89.5C 239.667,87.8333 239.667,86.1667 239,84.5C 237.494,86.1742 235.661,87.1742 233.5,87.5C 233.334,82.1563 233.501,76.8229 234,71.5C 237.178,69.0926 238.012,66.0926 236.5,62.5C 235.186,63.3128 234.019,64.3128 233,65.5C 232.667,65.1667 232.333,64.8333 232,64.5C 231.792,60.0823 231.126,55.749 230,51.5C 228.879,48.164 226.713,46.164 223.5,45.5C 222.957,45.44 222.624,45.1067 222.5,44.5C 223.628,43.7379 224.795,43.0712 226,42.5C 227,42.8333 228,43.1667 229,43.5C 230.255,42.7894 231.421,41.956 232.5,41C 229.497,40.2514 226.831,39.0848 224.5,37.5 Z"/></g>
<g><path style="opacity:0.008" fill="#6b0c6a" d="M 240.5,152.5 C 240.833,152.5 241.167,152.5 241.5,152.5C 241.784,154.415 241.451,156.081 240.5,157.5C 240.5,155.833 240.5,154.167 240.5,152.5 Z"/></g>
<g><path style="opacity:1" fill="#722664" d="M 171.5,154.5 C 173.288,154.215 174.955,154.548 176.5,155.5C 175.019,156.48 173.685,157.647 172.5,159C 168.179,159.499 163.846,159.666 159.5,159.5C 159.5,158.167 159.5,156.833 159.5,155.5C 163.702,155.817 167.702,155.483 171.5,154.5 Z"/></g>
<g><path style="opacity:1" fill="#d4a43f" d="M 159.5,155.5 C 159.5,156.833 159.5,158.167 159.5,159.5C 159.167,159.5 158.833,159.5 158.5,159.5C 152.824,159.334 147.157,159.501 141.5,160C 140.978,160.561 140.645,161.228 140.5,162C 143.428,166.408 142.261,167.575 137,165.5C 134.523,161.82 135.023,158.82 138.5,156.5C 145.443,155.573 152.443,155.24 159.5,155.5 Z"/></g>
<g><path style="opacity:0.016" fill="#540a54" d="M 78.5,159.5 C 78.8333,159.5 79.1667,159.5 79.5,159.5C 79.1667,164.833 78.8333,164.833 78.5,159.5 Z"/></g>
<g><path style="opacity:0.004" fill="#270f26" d="M 239.5,157.5 C 239.833,157.5 240.167,157.5 240.5,157.5C 240.167,164.167 239.833,164.167 239.5,157.5 Z"/></g>
<g><path style="opacity:1" fill="#d6a640" d="M 101.5,124.5 C 101.336,132.541 101.836,140.541 103,148.5C 109.024,148.46 115.19,148.626 121.5,149C 122.328,149.915 123.328,150.581 124.5,151C 118.538,150.529 112.538,150.529 106.5,151C 89.9846,154.122 86.3179,162.955 95.5,177.5C 98.5212,163.843 106.855,157.843 120.5,159.5C 117.215,160.324 113.882,160.824 110.5,161C 108.82,161.347 107.82,162.347 107.5,164C 110.577,172.409 116.577,177.076 125.5,178C 134.167,178.333 142.833,178.667 151.5,179C 156.486,182.936 157.486,187.602 154.5,193C 149.953,194.545 145.287,194.879 140.5,194C 139.636,190.247 140.636,186.913 143.5,184C 136.096,183.543 132.096,187.043 131.5,194.5C 125.239,193.437 121.905,195.937 121.5,202C 121.279,205.946 122.946,208.779 126.5,210.5C 128.974,210.465 129.14,209.798 127,208.5C 125.524,204.156 127.024,201.822 131.5,201.5C 131.307,205.007 131.973,208.34 133.5,211.5C 135.462,213.998 137.795,214.998 140.5,214.5C 137.51,210.91 136.844,206.91 138.5,202.5C 143.326,200.781 146.326,202.448 147.5,207.5C 147.182,208.647 146.516,209.481 145.5,210C 148.84,210.824 151.173,209.657 152.5,206.5C 153.404,205.791 153.737,204.791 153.5,203.5C 155.167,203.5 156.833,203.5 158.5,203.5C 158.5,212.167 158.5,220.833 158.5,229.5C 157.5,229.5 156.5,229.5 155.5,229.5C 124.272,218.406 101.106,198.073 86,168.5C 82.1212,156.472 79.9546,144.138 79.5,131.5C 81.1773,135.545 81.8439,139.878 81.5,144.5C 82.8333,144.5 84.1667,144.5 85.5,144.5C 85.1774,148.226 85.5108,151.893 86.5,155.5C 89.0939,149.234 93.7606,146.234 100.5,146.5C 99.9084,143.873 99.5751,141.206 99.5,138.5C 100.167,133.833 100.833,129.167 101.5,124.5 Z"/></g>
<g><path style="opacity:1" fill="#6e2266" d="M 99.5,138.5 C 99.5751,141.206 99.9084,143.873 100.5,146.5C 93.7606,146.234 89.0939,149.234 86.5,155.5C 85.5108,151.893 85.1774,148.226 85.5,144.5C 88.8092,139.548 93.4759,136.548 99.5,135.5C 99.5,136.5 99.5,137.5 99.5,138.5 Z"/></g>
<g><path style="opacity:0.004" fill="#2d102b" d="M 81.5,167.5 C 81.631,168.239 81.4643,168.906 81,169.5C 80.3083,168.563 80.475,167.897 81.5,167.5 Z"/></g>
<g><path style="opacity:0.016" fill="#6cff8a" d="M 236.5,167.5 C 236.833,167.5 237.167,167.5 237.5,167.5C 237.737,168.791 237.404,169.791 236.5,170.5C 236.5,169.5 236.5,168.5 236.5,167.5 Z"/></g>
<g><path style="opacity:1" fill="#6b1d68" d="M 222.5,172.5 C 219.355,171.2 218.855,169.2 221,166.5C 222.167,169 224,170.833 226.5,172C 225.289,172.893 225.289,173.726 226.5,174.5C 228.45,175.372 230.45,176.039 232.5,176.5C 234.527,176.338 236.527,176.505 238.5,177C 235.833,177.333 233.167,177.667 230.5,178C 229.748,178.671 229.414,179.504 229.5,180.5C 224.273,186.961 219.273,193.628 214.5,200.5C 216.045,201.452 217.712,201.785 219.5,201.5C 217.5,202.167 215.5,202.833 213.5,203.5C 209.099,206.402 207.432,210.568 208.5,216C 208.336,221.979 209.669,227.479 212.5,232.5C 212.97,233.693 213.97,234.36 215.5,234.5C 218.154,233.732 220.821,233.566 223.5,234C 221.751,234.785 220.084,235.618 218.5,236.5C 217.903,235.861 217.07,235.528 216,235.5C 205.652,237.965 195.152,239.298 184.5,239.5C 184.918,238.778 185.584,238.278 186.5,238C 194.521,237.274 202.521,236.44 210.5,235.5C 210.737,234.209 210.404,233.209 209.5,232.5C 209.167,232.5 208.833,232.5 208.5,232.5C 208.672,231.508 208.338,230.842 207.5,230.5C 206.976,228.694 206.309,227.028 205.5,225.5C 205.073,221.176 204.739,216.842 204.5,212.5C 205.573,211.749 205.74,210.749 205,209.5C 204.283,210.044 203.783,210.711 203.5,211.5C 202.833,211.5 202.5,211.833 202.5,212.5C 201.508,212.328 200.842,212.662 200.5,213.5C 199.833,213.5 199.5,213.833 199.5,214.5C 197.463,215.846 195.463,217.18 193.5,218.5C 192.5,218.833 191.833,219.5 191.5,220.5C 189.745,221.072 188.078,221.906 186.5,223C 187.167,223.333 187.833,223.667 188.5,224C 182.267,225.455 176.6,227.955 171.5,231.5C 169.901,231.232 168.568,231.566 167.5,232.5C 165.708,232.366 164.042,232.699 162.5,233.5C 159.09,233.543 155.757,233.043 152.5,232C 153.244,230.961 154.244,230.461 155.5,230.5C 156.833,230.5 158.167,230.5 159.5,230.5C 159.5,221.5 159.5,212.5 159.5,203.5C 167.382,203.639 175.049,202.972 182.5,201.5C 185.091,200.746 186.924,199.079 188,196.5C 189.407,191.633 188.24,187.633 184.5,184.5C 184.571,189.082 182.571,192.249 178.5,194C 173.167,194.667 167.833,194.667 162.5,194C 168.011,190.326 170.011,185.159 168.5,178.5C 174.396,177.773 179.229,175.107 183,170.5C 186.498,165.028 188.498,159.028 189,152.5C 189.465,151.069 190.299,149.903 191.5,149C 194.208,147.931 196.875,146.764 199.5,145.5C 200.386,146.325 200.719,147.325 200.5,148.5C 203.346,148.191 204.846,146.525 205,143.5C 205.689,144.357 206.522,145.023 207.5,145.5C 208.684,143.954 209.684,142.287 210.5,140.5C 211.167,140.833 211.833,141.167 212.5,141.5C 213.167,139.833 213.833,138.167 214.5,136.5C 215.167,137.167 215.833,137.833 216.5,138.5C 217.806,137.088 218.64,135.421 219,133.5C 219.414,133.957 219.914,134.291 220.5,134.5C 221.314,132.234 221.814,129.9 222,127.5C 222.414,127.043 222.914,126.709 223.5,126.5C 224.293,130.12 224.293,133.787 223.5,137.5C 222.325,137.281 221.325,137.614 220.5,138.5C 219.669,141.327 219.669,144.327 220.5,147.5C 217.227,147.471 216.56,148.804 218.5,151.5C 216.676,158.814 213.51,165.48 209,171.5C 206.615,173.776 203.781,175.109 200.5,175.5C 191.998,171.974 191.331,167.141 198.5,161C 202.492,159.823 204.158,161.323 203.5,165.5C 201.801,165.34 200.134,165.506 198.5,166C 196.976,169.116 197.976,170.95 201.5,171.5C 204.251,171.045 206.418,169.711 208,167.5C 209.596,160.681 207.096,156.348 200.5,154.5C 193.532,156.801 188.865,161.468 186.5,168.5C 189.335,178.238 195.668,182.405 205.5,181C 209.315,178.14 213.648,176.807 218.5,177C 220.635,176.124 221.969,174.624 222.5,172.5 Z M 204.5,212.5 C 204.5,211.833 204.167,211.5 203.5,211.5C 203.783,210.711 204.283,210.044 205,209.5C 205.74,210.749 205.573,211.749 204.5,212.5 Z M 203.5,212.5 C 203.833,212.5 204.167,212.5 204.5,212.5C 204.739,216.842 205.073,221.176 205.5,225.5C 204.833,223.833 204.167,222.167 203.5,220.5C 203.5,217.833 203.5,215.167 203.5,212.5 Z M 193.5,218.5 C 193.5,219.167 193.5,219.833 193.5,220.5C 192.833,220.5 192.167,220.5 191.5,220.5C 191.833,219.5 192.5,218.833 193.5,218.5 Z M 171.5,231.5 C 171.5,231.833 171.5,232.167 171.5,232.5C 170.209,232.263 169.209,232.596 168.5,233.5C 167.833,233.5 167.5,233.167 167.5,232.5C 168.568,231.566 169.901,231.232 171.5,231.5 Z"/></g>
<g><path style="opacity:0.008" fill="#7f0080" d="M 73.5,177.5 C 72.8333,176.167 72.8333,176.167 73.5,177.5 Z"/></g>
<g><path style="opacity:0.008" fill="#7f0080" d="M 244.5,176.5 C 245.833,177.167 245.833,177.167 244.5,176.5 Z"/></g>
<g><path style="opacity:0.999" fill="#ecdeb7" d="M 219.5,201.5 C 217.712,201.785 216.045,201.452 214.5,200.5C 219.273,193.628 224.273,186.961 229.5,180.5C 235.746,177.944 241.579,178.944 247,183.5C 247.667,184.833 247.667,186.167 247,187.5C 241.154,193.682 235.654,200.182 230.5,207C 229.5,207.667 228.5,207.667 227.5,207C 225.363,204.429 222.697,202.596 219.5,201.5 Z"/></g>
<g><path style="opacity:0.008" fill="#7d0e7d" d="M 66.5,188.5 C 65.3871,187.054 65.2204,185.387 66,183.5C 66.4935,185.134 66.6602,186.801 66.5,188.5 Z"/></g>
<g><path style="opacity:0.012" fill="#5b0e5b" d="M 251.5,189.5 C 251.338,187.473 251.505,185.473 252,183.5C 252.789,185.712 252.622,187.712 251.5,189.5 Z"/></g>
<g><path style="opacity:0.004" fill="#501a4e" d="M 66.5,188.5 C 66.8333,188.5 67.1667,188.5 67.5,188.5C 67.1667,191.167 66.8333,191.167 66.5,188.5 Z"/></g>
<g><path style="opacity:0.004" fill="#000000" d="M 250.5,189.5 C 250.833,189.5 251.167,189.5 251.5,189.5C 251.315,190.17 250.981,190.17 250.5,189.5 Z"/></g>
<g><path style="opacity:0.008" fill="#7f0080" d="M 249.5,190.5 C 249.833,190.5 250.167,190.5 250.5,190.5C 250.315,191.17 249.981,191.17 249.5,190.5 Z"/></g>
<g><path style="opacity:0.004" fill="#fe0000" d="M 248.5,191.5 C 248.833,191.5 249.167,191.5 249.5,191.5C 249.315,192.17 248.981,192.17 248.5,191.5 Z"/></g>
<g><path style="opacity:0.996" fill="#692565" d="M 77.5,105.5 C 78.4566,113.995 79.1233,122.662 79.5,131.5C 79.9546,144.138 82.1212,156.472 86,168.5C 101.106,198.073 124.272,218.406 155.5,229.5C 155.5,229.833 155.5,230.167 155.5,230.5C 154.244,230.461 153.244,230.961 152.5,232C 155.757,233.043 159.09,233.543 162.5,233.5C 161.119,235.274 161.452,236.774 163.5,238C 162.207,238.49 160.873,238.657 159.5,238.5C 155.5,238.5 151.5,238.5 147.5,238.5C 147.5,238.833 147.5,239.167 147.5,239.5C 141.176,239.942 135.009,239.276 129,237.5C 127.124,237.525 125.624,238.191 124.5,239.5C 112.989,236.86 101.323,235.193 89.5,234.5C 90.4389,241.806 90.4389,249.139 89.5,256.5C 88.8333,256.5 88.1667,256.5 87.5,256.5C 87.2978,251.296 87.6311,246.129 88.5,241C 88.1354,238.739 87.4687,236.573 86.5,234.5C 81.7739,233.105 77.1072,231.605 72.5,230C 63.0909,229.083 53.7576,229.416 44.5,231C 42.5125,232.319 41.3459,234.152 41,236.5C 40.5017,239.817 40.335,243.15 40.5,246.5C 39.8333,251.833 39.1667,257.167 38.5,262.5C 38.5,256.833 38.5,251.167 38.5,245.5C 34.5,244.833 30.5,244.167 26.5,243.5C 26.7911,242.351 27.6244,241.684 29,241.5C 31.7923,242.216 34.6257,242.549 37.5,242.5C 37.5,240.833 37.5,239.167 37.5,237.5C 38.3844,234.977 39.2177,232.31 40,229.5C 40.3333,229.833 40.6667,230.167 41,230.5C 46.4632,227.706 52.2966,226.373 58.5,226.5C 62.5782,226.728 66.4116,227.061 70,227.5C 72.147,226.127 73.147,224.46 73,222.5C 73.3333,223.167 73.6667,223.833 74,224.5C 75.7887,221.259 77.2887,217.926 78.5,214.5C 79.4511,213.081 79.7845,211.415 79.5,209.5C 80.8333,207.167 80.8333,204.833 79.5,202.5C 79.1583,201.662 78.4916,201.328 77.5,201.5C 74.9255,196.591 71.5922,192.258 67.5,188.5C 67.3398,186.801 67.5065,185.134 68,183.5C 70.068,181.604 71.9013,179.604 73.5,177.5C 75.1789,177.108 76.8455,176.608 78.5,176C 74.7741,174.957 75.1074,174.457 79.5,174.5C 80.209,173.596 81.209,173.263 82.5,173.5C 82.7947,171.265 82.4614,169.265 81.5,167.5C 81.4349,164.572 80.7682,161.905 79.5,159.5C 79.1667,152.833 78.8333,152.833 78.5,159.5C 77.8333,154.5 77.1667,149.5 76.5,144.5C 76.8128,140.958 76.4794,137.625 75.5,134.5C 75.1667,113.167 74.8333,113.167 74.5,134.5C 73.5104,128.69 73.1771,122.69 73.5,116.5C 73.9427,109.497 73.9427,102.497 73.5,95.5C 74.2216,95.0825 74.7216,94.4158 75,93.5C 75.6297,105.169 76.2964,116.835 77,128.5C 77.4997,120.841 77.6664,113.174 77.5,105.5 Z M 84.5,173.5 C 85.0431,173.56 85.3764,173.893 85.5,174.5C 83.3635,175.793 81.3635,175.793 79.5,174.5C 81.4147,174.784 83.0813,174.451 84.5,173.5 Z M 116.5,213.5 C 116.5,214.167 116.833,214.5 117.5,214.5C 117.5,215.167 117.833,215.5 118.5,215.5C 119.659,217.25 121.326,218.25 123.5,218.5C 124.833,219.167 126.167,219.833 127.5,220.5C 125.335,221.062 125.668,221.729 128.5,222.5C 130.691,223.869 133.025,224.869 135.5,225.5C 134.761,225.369 134.094,225.536 133.5,226C 135.407,227.122 137.407,227.955 139.5,228.5C 139.973,229.906 140.973,230.573 142.5,230.5C 143.78,231.931 145.447,232.598 147.5,232.5C 150.167,233.167 152.833,233.833 155.5,234.5C 151.5,234.833 151.5,235.167 155.5,235.5C 156.952,236.302 158.618,236.802 160.5,237C 155.981,237.175 151.647,237.675 147.5,238.5C 143.154,238.666 138.821,238.499 134.5,238C 138.5,237.667 142.5,237.333 146.5,237C 135.945,236.969 125.612,236.136 115.5,234.5C 124.833,234.167 124.833,233.833 115.5,233.5C 113.781,232.978 112.448,231.978 111.5,230.5C 112.833,229.5 112.833,228.5 111.5,227.5C 112.395,222.858 113.228,218.191 114,213.5C 114.333,215.5 114.667,217.5 115,219.5C 115.191,217.292 115.691,215.292 116.5,213.5 Z M 117.5,214.5 C 117.5,214.167 117.5,213.833 117.5,213.5C 118.833,213.5 119.5,214.167 119.5,215.5C 119.167,215.5 118.833,215.5 118.5,215.5C 117.833,215.5 117.5,215.167 117.5,214.5 Z M 141.5,228.5 C 143.027,228.427 144.027,229.094 144.5,230.5C 143.833,230.5 143.167,230.5 142.5,230.5C 142.167,229.833 141.833,229.167 141.5,228.5 Z M 110.5,230.5 C 110.5,231.5 110.5,232.5 110.5,233.5C 112.167,233.5 113.833,233.5 115.5,233.5C 115.5,233.833 115.5,234.167 115.5,234.5C 113.5,234.5 111.5,234.5 109.5,234.5C 109.232,232.901 109.566,231.568 110.5,230.5 Z"/></g>
<g><path style="opacity:0.999" fill="#ebdcb6" d="M 80.5,177.5 C 82.8568,177.337 85.1902,177.503 87.5,178C 92.6421,185.641 97.9754,193.141 103.5,200.5C 97.5416,201.227 92.7083,203.894 89,208.5C 82.9714,201.71 76.9714,195.044 71,188.5C 70.3486,186.765 70.5153,185.098 71.5,183.5C 74.427,181.216 77.427,179.216 80.5,177.5 Z"/></g>
<g><path style="opacity:0.024" fill="#542b55" d="M 246.5,193.5 C 247.833,194.167 247.833,194.167 246.5,193.5 Z"/></g>
<g><path style="opacity:0.012" fill="#540055" d="M 241.5,199.5 C 242.833,200.167 242.833,200.167 241.5,199.5 Z"/></g>
<g><path style="opacity:0.004" fill="#000000" d="M 77.5,201.5 C 76.8333,202.167 76.8333,202.167 77.5,201.5 Z"/></g>
<g><path style="opacity:0.999" fill="#ecdeb6" d="M 213.5,203.5 C 216.794,203.259 219.794,204.092 222.5,206C 224.35,208.018 226.35,209.851 228.5,211.5C 230.909,210.299 232.909,208.633 234.5,206.5C 235.088,213.675 237.588,220.009 242,225.5C 242.483,226.448 242.649,227.448 242.5,228.5C 232.551,231.162 222.551,232.496 212.5,232.5C 209.669,227.479 208.336,221.979 208.5,216C 207.432,210.568 209.099,206.402 213.5,203.5 Z"/></g>
<g><path style="opacity:0.012" fill="#610361" d="M 79.5,202.5 C 79.5,204.833 79.5,207.167 79.5,209.5C 78.1667,207.167 78.1667,204.833 79.5,202.5 Z"/></g>
<g><path style="opacity:1" fill="#eddfb7" d="M 98.5,203.5 C 104.585,202.099 108.085,204.432 109,210.5C 110.077,218.191 108.91,225.525 105.5,232.5C 94.9819,232.831 84.6485,231.331 74.5,228C 79.183,221.988 82.3497,215.155 84,207.5C 86.5562,208.219 87.7229,209.886 87.5,212.5C 91.4236,209.919 95.0903,206.919 98.5,203.5 Z"/></g>
<g><path style="opacity:1" fill="#af7850" d="M 158.5,159.5 C 158.833,159.5 159.167,159.5 159.5,159.5C 159.5,173.5 159.5,187.5 159.5,201.5C 167.167,201.5 174.833,201.5 182.5,201.5C 175.049,202.972 167.382,203.639 159.5,203.5C 159.5,212.5 159.5,221.5 159.5,230.5C 158.167,230.5 156.833,230.5 155.5,230.5C 155.5,230.167 155.5,229.833 155.5,229.5C 156.5,229.5 157.5,229.5 158.5,229.5C 158.5,220.833 158.5,212.167 158.5,203.5C 156.833,203.5 155.167,203.5 153.5,203.5C 153.737,204.791 153.404,205.791 152.5,206.5C 152.062,202.092 154.062,200.425 158.5,201.5C 158.5,187.5 158.5,173.5 158.5,159.5 Z"/></g>
<g><path style="opacity:0.012" fill="#540554" d="M 78.5,214.5 C 77.4017,213.399 77.235,212.066 78,210.5C 78.49,211.793 78.6567,213.127 78.5,214.5 Z"/></g>
<g><path style="opacity:0.02" fill="#352b34" d="M 202.5,212.5 C 202.833,212.5 203.167,212.5 203.5,212.5C 203.5,215.167 203.5,217.833 203.5,220.5C 202.691,218.708 202.191,216.708 202,214.5C 201.023,215.774 200.189,215.774 199.5,214.5C 200.167,214.5 200.5,214.167 200.5,213.5C 201.492,213.672 202.158,213.338 202.5,212.5 Z"/></g>
<g><path style="opacity:0.012" fill="#660f65" d="M 193.5,218.5 C 195.933,218.786 195.933,219.452 193.5,220.5C 193.5,219.833 193.5,219.167 193.5,218.5 Z"/></g>
<g><path style="opacity:0.004" fill="#000000" d="M 51.5,225.5 C 55.9811,224.352 60.6478,224.185 65.5,225C 60.8452,225.499 56.1785,225.666 51.5,225.5 Z"/></g>
<g><path style="opacity:0.004" fill="#000000" d="M 67.5,224.5 C 68.8333,225.167 68.8333,225.167 67.5,224.5 Z"/></g>
<g><path style="opacity:0.008" fill="#521051" d="M 246.5,225.5 C 253.321,224.345 260.321,224.179 267.5,225C 260.508,225.5 253.508,225.666 246.5,225.5 Z"/></g>
<g><path style="opacity:0.008" fill="#7c107c" d="M 46.5,226.5 C 47.6009,225.402 48.9343,225.235 50.5,226C 49.2068,226.49 47.8734,226.657 46.5,226.5 Z"/></g>
<g><path style="opacity:0.008" fill="#7f0080" d="M 69.5,225.5 C 70.8333,226.167 70.8333,226.167 69.5,225.5 Z"/></g>
<g><path style="opacity:0.004" fill="#c71ac6" d="M 268.5,226.5 C 269.601,225.402 270.934,225.235 272.5,226C 271.207,226.49 269.873,226.657 268.5,226.5 Z"/></g>
<g><path style="opacity:0.004" fill="#a31ea2" d="M 43.5,227.5 C 43.8966,226.475 44.5632,226.308 45.5,227C 44.9056,227.464 44.2389,227.631 43.5,227.5 Z"/></g>
<g><path style="opacity:0.004" fill="#1e0c1d" d="M 139.5,228.5 C 140.167,228.5 140.833,228.5 141.5,228.5C 141.833,229.167 142.167,229.833 142.5,230.5C 140.973,230.573 139.973,229.906 139.5,228.5 Z"/></g>
<g><path style="opacity:0.008" fill="#7f0080" d="M 276.5,228.5 C 277.833,229.167 277.833,229.167 276.5,228.5 Z"/></g>
<g><path style="opacity:1" fill="#eadbb6" d="M 87.5,256.5 C 86.0813,257.451 84.4147,257.784 82.5,257.5C 83.8333,251.5 83.8333,245.5 82.5,239.5C 81.5,239.5 80.5,239.5 79.5,239.5C 79.2154,244.897 79.5488,250.23 80.5,255.5C 79.3112,256.429 77.9778,256.762 76.5,256.5C 77.0742,250.516 77.4075,244.516 77.5,238.5C 76.5,238.5 75.5,238.5 74.5,238.5C 74.687,244.212 74.3537,249.879 73.5,255.5C 64.8269,255.334 56.1603,255.5 47.5,256C 45.444,256.311 43.444,256.811 41.5,257.5C 40.5108,253.893 40.1774,250.226 40.5,246.5C 40.335,243.15 40.5017,239.817 41,236.5C 41.3459,234.152 42.5125,232.319 44.5,231C 53.7576,229.416 63.0909,229.083 72.5,230C 77.1072,231.605 81.7739,233.105 86.5,234.5C 87.4687,236.573 88.1354,238.739 88.5,241C 87.6311,246.129 87.2978,251.296 87.5,256.5 Z"/></g>
<g><path style="opacity:0.012" fill="#4a104f" d="M 207.5,230.5 C 207.328,231.492 207.662,232.158 208.5,232.5C 208.5,232.833 208.5,233.167 208.5,233.5C 206.143,233.663 203.81,233.497 201.5,233C 203.845,232.764 205.845,231.93 207.5,230.5 Z"/></g>
<g><path style="opacity:1" fill="#eadbb5" d="M 268.5,255.5 C 259.134,255.279 249.801,255.613 240.5,256.5C 240.443,251.318 239.776,251.318 238.5,256.5C 236.929,257.309 235.262,257.643 233.5,257.5C 233.841,253.84 233.175,250.507 231.5,247.5C 231.791,246.351 232.624,245.684 234,245.5C 234.833,245.667 235.667,245.833 236.5,246C 237.103,247.825 237.77,249.659 238.5,251.5C 239.48,248.914 239.813,246.247 239.5,243.5C 240.833,243.5 242.167,243.5 243.5,243.5C 243.5,242.5 243.5,241.5 243.5,240.5C 241.833,240.5 240.167,240.5 238.5,240.5C 238.753,238.173 238.086,236.173 236.5,234.5C 235.294,236.484 235.294,238.484 236.5,240.5C 235.15,241.95 233.484,242.617 231.5,242.5C 231.78,239.612 230.447,238.112 227.5,238C 228.38,236.644 228.714,235.144 228.5,233.5C 234.369,233.293 240.036,232.126 245.5,230C 253.167,229.333 260.833,229.333 268.5,230C 270.256,230.202 271.922,230.702 273.5,231.5C 274.167,232.833 275.167,233.833 276.5,234.5C 277.833,242.167 277.833,249.833 276.5,257.5C 273.803,256.831 271.137,256.164 268.5,255.5 Z"/></g>
<g><path style="opacity:0.012" fill="#5e125d" d="M 110.5,230.5 C 110.833,230.5 111.167,230.5 111.5,230.5C 112.448,231.978 113.781,232.978 115.5,233.5C 113.833,233.5 112.167,233.5 110.5,233.5C 110.5,232.5 110.5,231.5 110.5,230.5 Z"/></g>
<g><path style="opacity:0.008" fill="#980098" d="M 37.5,237.5 C 37.1667,237.5 36.8333,237.5 36.5,237.5C 36.8333,232.167 37.1667,232.167 37.5,237.5 Z"/></g>
<g><path style="opacity:0.01" fill="#3a1e39" d="M 168.5,233.5 C 169.209,232.596 170.209,232.263 171.5,232.5C 170.766,233.708 170.433,235.041 170.5,236.5C 173.713,236.19 176.713,236.523 179.5,237.5C 176.167,237.5 172.833,237.5 169.5,237.5C 169.768,235.901 169.434,234.568 168.5,233.5 Z"/></g>
<g><path style="opacity:0.012" fill="#760076" d="M 281.5,238.5 C 281.167,238.5 280.833,238.5 280.5,238.5C 280.833,231.833 281.167,231.833 281.5,238.5 Z"/></g>
<g><path style="opacity:1" fill="#5e0c62" d="M 69.5,235.5 C 71.3035,234.838 73.3035,234.505 75.5,234.5C 78.0373,234.397 80.3706,234.897 82.5,236C 78.1951,235.923 73.8618,235.756 69.5,235.5 Z"/></g>
<g><path style="opacity:1" fill="#74316e" d="M 235.5,170.5 C 235.833,170.5 236.167,170.5 236.5,170.5C 236.034,172.201 236.034,173.701 236.5,175C 238.443,174.695 240.443,174.695 242.5,175C 241.5,175.333 240.5,175.667 239.5,176C 241.154,176.608 242.821,177.108 244.5,177.5C 245.786,179.206 247.62,181.206 250,183.5C 250.495,185.473 250.662,187.473 250.5,189.5C 249.833,189.5 249.5,189.833 249.5,190.5C 248.833,190.5 248.5,190.833 248.5,191.5C 247.5,191.833 246.833,192.5 246.5,193.5C 245.167,193.833 245.167,194.167 246.5,194.5C 246.607,196.379 246.107,196.712 245,195.5C 243.28,196.384 242.114,197.717 241.5,199.5C 240.542,199.953 239.708,200.619 239,201.5C 238.049,207.373 238.715,213.04 241,218.5C 241.667,215.833 242.333,215.833 243,218.5C 241.974,221.706 243.14,224.04 246.5,225.5C 253.321,226.329 260.321,226.829 267.5,227C 270.652,227.395 273.652,228.228 276.5,229.5C 278.568,232.253 279.902,235.253 280.5,238.5C 280.5,239.833 280.5,241.167 280.5,242.5C 291.185,239.638 301.852,239.305 312.5,241.5C 314.01,243.193 315.677,244.027 317.5,244C 316.659,245.996 316.992,247.829 318.5,249.5C 318.5,257.833 318.5,266.167 318.5,274.5C 317.596,275.209 317.263,276.209 317.5,277.5C 316.5,277.833 315.833,278.5 315.5,279.5C 314.167,279.833 314.167,280.167 315.5,280.5C 315.027,281.906 314.027,282.573 312.5,282.5C 312.167,281.167 311.833,281.167 311.5,282.5C 310.508,282.328 309.842,282.662 309.5,283.5C 305.5,283.833 305.5,284.167 309.5,284.5C 307.651,285.837 305.484,286.503 303,286.5C 294.513,286.305 286.013,286.305 277.5,286.5C 275.833,286.333 274.167,286.167 272.5,286C 275.036,285.814 277.369,285.314 279.5,284.5C 286.5,284.5 293.5,284.5 300.5,284.5C 301.609,283.71 302.942,283.21 304.5,283C 303.5,282.833 302.5,282.667 301.5,282.5C 294.856,283.548 288.19,283.714 281.5,283C 278.203,282.796 275.203,281.963 272.5,280.5C 284.539,283.263 296.539,283.097 308.5,280C 313.903,277.988 315.403,274.488 313,269.5C 306.582,268.357 300.082,268.19 293.5,269C 285.368,271.47 277.034,273.303 268.5,274.5C 266.5,273.833 264.5,273.167 262.5,272.5C 273.732,271.406 284.732,269.24 295.5,266C 302.011,264.968 308.344,265.468 314.5,267.5C 315.833,260.833 315.833,254.167 314.5,247.5C 313.636,245.803 312.303,244.637 310.5,244C 301.121,243.184 291.787,243.517 282.5,245C 280.891,250.911 279.891,257.078 279.5,263.5C 278.618,264.76 277.618,265.926 276.5,267C 271.177,267.499 265.844,267.666 260.5,267.5C 260.5,266.833 260.5,266.167 260.5,265.5C 265.64,264.512 270.974,264.179 276.5,264.5C 276.714,262.856 276.38,261.356 275.5,260C 272.421,259.027 269.421,258.194 266.5,257.5C 267.833,257.5 268.5,256.833 268.5,255.5C 271.137,256.164 273.803,256.831 276.5,257.5C 277.833,249.833 277.833,242.167 276.5,234.5C 275.167,233.833 274.167,232.833 273.5,231.5C 271.922,230.702 270.256,230.202 268.5,230C 260.833,229.333 253.167,229.333 245.5,230C 240.036,232.126 234.369,233.293 228.5,233.5C 228.714,235.144 228.38,236.644 227.5,238C 230.447,238.112 231.78,239.612 231.5,242.5C 233.484,242.617 235.15,241.95 236.5,240.5C 235.294,238.484 235.294,236.484 236.5,234.5C 238.086,236.173 238.753,238.173 238.5,240.5C 240.167,240.5 241.833,240.5 243.5,240.5C 243.5,241.5 243.5,242.5 243.5,243.5C 242.167,243.5 240.833,243.5 239.5,243.5C 239.813,246.247 239.48,248.914 238.5,251.5C 237.77,249.659 237.103,247.825 236.5,246C 235.667,245.833 234.833,245.667 234,245.5C 232.624,245.684 231.791,246.351 231.5,247.5C 228.158,246.988 226.324,244.988 226,241.5C 225.335,243.966 224.835,246.133 224.5,248C 227.167,249 227.167,250 224.5,251C 225.624,251.249 226.624,251.749 227.5,252.5C 227.043,253.298 226.376,253.631 225.5,253.5C 224.391,252.71 223.058,252.21 221.5,252C 220.728,248.02 220.728,243.854 221.5,239.5C 220.23,238.712 219.23,237.712 218.5,236.5C 220.084,235.618 221.751,234.785 223.5,234C 220.821,233.566 218.154,233.732 215.5,234.5C 213.97,234.36 212.97,233.693 212.5,232.5C 222.551,232.496 232.551,231.162 242.5,228.5C 242.649,227.448 242.483,226.448 242,225.5C 237.588,220.009 235.088,213.675 234.5,206.5C 232.909,208.633 230.909,210.299 228.5,211.5C 226.35,209.851 224.35,208.018 222.5,206C 219.794,204.092 216.794,203.259 213.5,203.5C 215.5,202.833 217.5,202.167 219.5,201.5C 222.697,202.596 225.363,204.429 227.5,207C 228.5,207.667 229.5,207.667 230.5,207C 235.654,200.182 241.154,193.682 247,187.5C 247.667,186.167 247.667,184.833 247,183.5C 241.579,178.944 235.746,177.944 229.5,180.5C 229.414,179.504 229.748,178.671 230.5,178C 233.167,177.667 235.833,177.333 238.5,177C 236.527,176.505 234.527,176.338 232.5,176.5C 232.232,174.901 232.566,173.568 233.5,172.5C 233.833,175.167 234.167,175.167 234.5,172.5C 235.338,172.158 235.672,171.492 235.5,170.5 Z"/></g>
<g><path style="opacity:1" fill="#ebdeb6" d="M 124.5,239.5 C 125.497,239.47 126.164,239.97 126.5,241C 125.866,245.182 125.199,249.349 124.5,253.5C 124.987,254.446 125.32,255.446 125.5,256.5C 124.52,258.519 123.186,260.353 121.5,262C 123.013,264.023 124.346,263.856 125.5,261.5C 126.731,262.651 126.731,263.817 125.5,265C 122.5,265.667 119.5,265.667 116.5,265C 107.06,262.941 97.7262,260.608 88.5,258C 89.056,257.617 89.3893,257.117 89.5,256.5C 90.4389,249.139 90.4389,241.806 89.5,234.5C 101.323,235.193 112.989,236.86 124.5,239.5 Z"/></g>
<g><path style="opacity:0.004" fill="#1e0c1d" d="M 36.5,237.5 C 36.6567,238.873 36.49,240.207 36,241.5C 35.235,239.934 35.4017,238.601 36.5,237.5 Z"/></g>
<g><path style="opacity:0.424" fill="#272827" d="M 167.5,232.5 C 167.5,233.167 167.833,233.5 168.5,233.5C 168.5,235.167 168.5,236.833 168.5,238.5C 165.713,239.477 162.713,239.81 159.5,239.5C 159.5,239.167 159.5,238.833 159.5,238.5C 160.873,238.657 162.207,238.49 163.5,238C 161.452,236.774 161.119,235.274 162.5,233.5C 164.042,232.699 165.708,232.366 167.5,232.5 Z"/></g>
<g><path style="opacity:1" fill="#ebdcb6" d="M 218.5,236.5 C 219.23,237.712 220.23,238.712 221.5,239.5C 220.728,243.854 220.728,248.02 221.5,252C 223.058,252.21 224.391,252.71 225.5,253.5C 227.309,254.291 229.309,254.291 231.5,253.5C 231.739,255.467 231.406,257.301 230.5,259C 218.109,260.954 205.775,263.121 193.5,265.5C 191.5,265.167 189.5,264.833 187.5,264.5C 186.362,261.087 185.029,257.754 183.5,254.5C 184.167,253.167 185.167,252.167 186.5,251.5C 187.524,252.853 188.857,253.52 190.5,253.5C 190.17,247.001 186.837,243.001 180.5,241.5C 181.949,240.828 183.282,240.161 184.5,239.5C 195.152,239.298 205.652,237.965 216,235.5C 217.07,235.528 217.903,235.861 218.5,236.5 Z"/></g>
<g><path style="opacity:0.004" fill="#3c163b" d="M 281.5,238.5 C 282.573,239.251 282.74,240.251 282,241.5C 281.517,240.552 281.351,239.552 281.5,238.5 Z"/></g>
<g><path style="opacity:0.004" fill="#000000" d="M 293.5,239.5 C 294.251,238.427 295.251,238.26 296.5,239C 295.552,239.483 294.552,239.649 293.5,239.5 Z"/></g>
<g><path style="opacity:0.004" fill="#000000" d="M 304.5,239.5 C 306.288,238.378 308.288,238.211 310.5,239C 308.527,239.495 306.527,239.662 304.5,239.5 Z"/></g>
<g><path style="opacity:0.004" fill="#000000" d="M 312.5,240.5 C 311.833,239.167 311.833,239.167 312.5,240.5 Z"/></g>
<g><path style="opacity:0.004" fill="#000000" d="M 312.5,241.5 C 312.5,241.167 312.5,240.833 312.5,240.5C 315.167,240.833 315.167,241.167 312.5,241.5 Z"/></g>
<g><path style="opacity:1" fill="#74286e" d="M 71.5,239.5 C 72.1788,243.823 71.5121,248.157 69.5,252.5C 68.7534,247.977 69.4201,243.644 71.5,239.5 Z"/></g>
<g><path style="opacity:1" fill="#ede0b7" d="M 262.5,272.5 C 259.8,271.456 259.133,269.79 260.5,267.5C 265.844,267.666 271.177,267.499 276.5,267C 277.618,265.926 278.618,264.76 279.5,263.5C 279.891,257.078 280.891,250.911 282.5,245C 291.787,243.517 301.121,243.184 310.5,244C 312.303,244.637 313.636,245.803 314.5,247.5C 315.833,254.167 315.833,260.833 314.5,267.5C 308.344,265.468 302.011,264.968 295.5,266C 284.732,269.24 273.732,271.406 262.5,272.5 Z"/></g>
<g><path style="opacity:0.016" fill="#6a006a" d="M 319.5,246.5 C 319.5,247.5 319.5,248.5 319.5,249.5C 319.167,249.5 318.833,249.5 318.5,249.5C 318.263,248.209 318.596,247.209 319.5,246.5 Z"/></g>
<g><path style="opacity:1" fill="#e3d1b2" d="M 266.5,257.5 C 269.421,258.194 272.421,259.027 275.5,260C 276.38,261.356 276.714,262.856 276.5,264.5C 270.974,264.179 265.64,264.512 260.5,265.5C 258.143,263.679 257.809,261.345 259.5,258.5C 261.743,257.526 264.076,257.192 266.5,257.5 Z"/></g>
<g><path style="opacity:1" fill="#6e2a6a" d="M 209.5,232.5 C 210.404,233.209 210.737,234.209 210.5,235.5C 202.521,236.44 194.521,237.274 186.5,238C 185.584,238.278 184.918,238.778 184.5,239.5C 183.282,240.161 181.949,240.828 180.5,241.5C 186.837,243.001 190.17,247.001 190.5,253.5C 188.857,253.52 187.524,252.853 186.5,251.5C 185.167,252.167 184.167,253.167 183.5,254.5C 185.029,257.754 186.362,261.087 187.5,264.5C 189.5,264.833 191.5,265.167 193.5,265.5C 205.775,263.121 218.109,260.954 230.5,259C 231.406,257.301 231.739,255.467 231.5,253.5C 229.309,254.291 227.309,254.291 225.5,253.5C 226.376,253.631 227.043,253.298 227.5,252.5C 226.624,251.749 225.624,251.249 224.5,251C 227.167,250 227.167,249 224.5,248C 224.835,246.133 225.335,243.966 226,241.5C 226.324,244.988 228.158,246.988 231.5,247.5C 233.175,250.507 233.841,253.84 233.5,257.5C 235.262,257.643 236.929,257.309 238.5,256.5C 239.776,251.318 240.443,251.318 240.5,256.5C 249.801,255.613 259.134,255.279 268.5,255.5C 268.5,256.833 267.833,257.5 266.5,257.5C 264.076,257.192 261.743,257.526 259.5,258.5C 257.809,261.345 258.143,263.679 260.5,265.5C 260.5,266.167 260.5,266.833 260.5,267.5C 259.133,269.79 259.8,271.456 262.5,272.5C 264.5,273.167 266.5,273.833 268.5,274.5C 264.161,275.154 260.327,274.154 257,271.5C 256.501,266.845 256.334,262.179 256.5,257.5C 248.763,257.629 241.096,258.462 233.5,260C 232.483,261.049 232.316,262.216 233,263.5C 244.818,272.381 257.985,278.048 272.5,280.5C 275.203,281.963 278.203,282.796 281.5,283C 288.19,283.714 294.856,283.548 301.5,282.5C 302.5,282.667 303.5,282.833 304.5,283C 302.942,283.21 301.609,283.71 300.5,284.5C 293.5,284.5 286.5,284.5 279.5,284.5C 274.425,284.351 269.425,283.685 264.5,282.5C 263.791,281.596 262.791,281.263 261.5,281.5C 253.429,278.618 245.429,275.451 237.5,272C 236.167,271.333 236.167,270.667 237.5,270C 235.804,268.824 234.138,267.657 232.5,266.5C 230.821,264.193 228.488,263.193 225.5,263.5C 222.263,263.678 219.263,264.345 216.5,265.5C 214.585,265.216 212.919,265.549 211.5,266.5C 209.585,266.216 207.919,266.549 206.5,267.5C 205.209,267.263 204.209,267.596 203.5,268.5C 199.629,268.185 195.962,268.518 192.5,269.5C 186.833,269.5 181.167,269.5 175.5,269.5C 162.833,269.5 150.167,269.5 137.5,269.5C 129.83,269.222 122.164,268.889 114.5,268.5C 112.162,266.96 109.495,266.294 106.5,266.5C 100.79,264.331 94.7899,263.497 88.5,264C 87.944,264.383 87.6107,264.883 87.5,265.5C 86.5084,265.328 85.8417,265.662 85.5,266.5C 84.8333,266.5 84.5,266.833 84.5,267.5C 83.8333,267.5 83.5,267.833 83.5,268.5C 82.5084,268.328 81.8417,268.662 81.5,269.5C 80.1667,269.833 80.1667,270.167 81.5,270.5C 80.205,271.488 78.8717,272.488 77.5,273.5C 76.8333,272.167 76.1667,272.167 75.5,273.5C 74.5084,273.328 73.8417,273.662 73.5,274.5C 72.5084,274.328 71.8417,274.662 71.5,275.5C 70.5084,275.328 69.8417,275.662 69.5,276.5C 68.8333,276.5 68.5,276.833 68.5,277.5C 67.209,277.263 66.209,277.596 65.5,278.5C 64.209,278.263 63.209,278.596 62.5,279.5C 61.209,279.263 60.209,279.596 59.5,280.5C 58.209,280.263 57.209,280.596 56.5,281.5C 55.209,281.263 54.209,281.596 53.5,282.5C 52.5084,282.328 51.8417,282.662 51.5,283.5C 49.2646,283.205 47.2646,283.539 45.5,284.5C 34.8333,284.833 34.8333,285.167 45.5,285.5C 34.63,286.085 23.63,286.251 12.5,286C 13.8333,285.667 15.1667,285.333 16.5,285C 10.8537,284.553 6.0204,282.387 2,278.5C 1.66667,278.833 1.33333,279.167 1,279.5C 0.78997,277.942 0.28997,276.609 -0.5,275.5C -0.5,266.833 -0.5,258.167 -0.5,249.5C 1.05465,245.441 3.88799,242.441 8,240.5C 12.7488,241.305 17.5821,241.805 22.5,242C 23.4158,242.278 24.0825,242.778 24.5,243.5C 19.1563,243.334 13.8229,243.501 8.5,244C 5.45829,244.555 3.62495,246.388 3,249.5C 2.16973,255.528 2.33639,261.528 3.5,267.5C 8.98375,265.488 14.6504,264.988 20.5,266C 30.8396,268.535 41.3396,270.702 52,272.5C 56.1091,273.215 58.2757,271.548 58.5,267.5C 53.1563,267.666 47.8229,267.499 42.5,267C 39.5529,266.888 38.2196,265.388 38.5,262.5C 39.1667,257.167 39.8333,251.833 40.5,246.5C 40.1774,250.226 40.5108,253.893 41.5,257.5C 43.444,256.811 45.444,256.311 47.5,256C 56.1603,255.5 64.8269,255.334 73.5,255.5C 74.3537,249.879 74.687,244.212 74.5,238.5C 75.5,238.5 76.5,238.5 77.5,238.5C 77.4075,244.516 77.0742,250.516 76.5,256.5C 77.9778,256.762 79.3112,256.429 80.5,255.5C 79.5488,250.23 79.2154,244.897 79.5,239.5C 80.5,239.5 81.5,239.5 82.5,239.5C 83.8333,245.5 83.8333,251.5 82.5,257.5C 84.4147,257.784 86.0813,257.451 87.5,256.5C 88.1667,256.5 88.8333,256.5 89.5,256.5C 89.3893,257.117 89.056,257.617 88.5,258C 97.7262,260.608 107.06,262.941 116.5,265C 119.5,265.667 122.5,265.667 125.5,265C 126.731,263.817 126.731,262.651 125.5,261.5C 124.346,263.856 123.013,264.023 121.5,262C 123.186,260.353 124.52,258.519 125.5,256.5C 125.32,255.446 124.987,254.446 124.5,253.5C 125.199,249.349 125.866,245.182 126.5,241C 126.164,239.97 125.497,239.47 124.5,239.5C 125.624,238.191 127.124,237.525 129,237.5C 135.009,239.276 141.176,239.942 147.5,239.5C 151.5,239.5 155.5,239.5 159.5,239.5C 162.713,239.81 165.713,239.477 168.5,238.5C 172.371,238.815 176.038,238.482 179.5,237.5C 189.377,236.725 199.043,235.392 208.5,233.5C 209.167,233.5 209.5,233.167 209.5,232.5 Z"/></g>
<g><path style="opacity:0.012" fill="#540854" d="M 216.5,266.5 C 216.5,266.167 216.5,265.833 216.5,265.5C 223.167,265.833 223.167,266.167 216.5,266.5 Z"/></g>
<g><path style="opacity:0.965" fill="#e8d6b6" d="M 180.5,258.5 C 183.89,259.944 185.223,262.61 184.5,266.5C 182.833,266.5 181.167,266.5 179.5,266.5C 179.575,263.794 179.908,261.127 180.5,258.5 Z"/></g>
<g><path style="opacity:0.016" fill="#3f0040" d="M 87.5,265.5 C 88.8333,266.167 88.8333,266.167 87.5,265.5 Z"/></g>
<g><path style="opacity:1" fill="#e3d0b2" d="M 49.5,257.5 C 52.5,257.5 55.5,257.5 58.5,257.5C 58.9926,259.806 59.3259,262.139 59.5,264.5C 53.5,264.5 47.5,264.5 41.5,264.5C 41.5,262.833 41.5,261.167 41.5,259.5C 44.3725,259.198 47.0392,258.531 49.5,257.5 Z"/></g>
<g><path style="opacity:1" fill="#8f5580" d="M 141.5,242.5 C 153.322,241.505 165.322,241.172 177.5,241.5C 177.64,243.124 176.973,244.29 175.5,245C 177.076,245.44 178.41,246.273 179.5,247.5C 180.386,246.675 180.719,245.675 180.5,244.5C 186.494,245.36 187.161,247.86 182.5,252C 179.167,252.667 175.833,252.667 172.5,252C 173.554,250.612 173.72,249.112 173,247.5C 171.921,250.063 171.421,252.729 171.5,255.5C 169.699,250.088 171.365,245.921 176.5,243C 164.838,242.5 153.171,242.333 141.5,242.5 Z"/></g>
<g><path style="opacity:1" fill="#d8beac" d="M 131.5,240.5 C 133.833,240.5 136.167,240.5 138.5,240.5C 138.5,243.5 138.5,246.5 138.5,249.5C 137.127,249.343 135.793,249.51 134.5,250C 138.112,252.015 138.279,254.182 135,256.5C 134.228,256.355 133.561,256.022 133,255.5C 131.711,250.494 131.211,245.494 131.5,240.5 Z"/></g>
<g><path style="opacity:1" fill="#eddfb7" d="M 24.5,243.5 C 25.1667,243.5 25.8333,243.5 26.5,243.5C 30.5,244.167 34.5,244.833 38.5,245.5C 38.5,251.167 38.5,256.833 38.5,262.5C 38.2196,265.388 39.5529,266.888 42.5,267C 47.8229,267.499 53.1563,267.666 58.5,267.5C 58.2757,271.548 56.1091,273.215 52,272.5C 41.3396,270.702 30.8396,268.535 20.5,266C 14.6504,264.988 8.98375,265.488 3.5,267.5C 2.33639,261.528 2.16973,255.528 3,249.5C 3.62495,246.388 5.45829,244.555 8.5,244C 13.8229,243.501 19.1563,243.334 24.5,243.5 Z"/></g>
<g><path style="opacity:1" fill="#ecdeb6" d="M 141.5,242.5 C 153.171,242.333 164.838,242.5 176.5,243C 171.365,245.921 169.699,250.088 171.5,255.5C 172.756,255.096 173.923,254.429 175,253.5C 177.164,253.666 178.331,254.833 178.5,257C 178.015,260.411 177.348,263.744 176.5,267C 170.5,267.5 164.5,268 158.5,268.5C 148.524,267.411 138.524,266.745 128.5,266.5C 128.5,265.5 128.5,264.5 128.5,263.5C 129.833,263.5 131.167,263.5 132.5,263.5C 132.756,261.088 131.756,259.421 129.5,258.5C 131.231,257.657 133.065,257.657 135,258.5C 136.812,258.507 138.312,257.84 139.5,256.5C 140.985,251.954 141.652,247.287 141.5,242.5 Z"/></g>
<g><path style="opacity:0.008" fill="#7f0080" d="M 85.5,267.5 C 85.5,267.167 85.5,266.833 85.5,266.5C 86.1667,266.5 86.8333,266.5 87.5,266.5C 87.1583,267.338 86.4916,267.672 85.5,267.5 Z"/></g>
<g><path style="opacity:0.012" fill="#570270" d="M 106.5,266.5 C 106.5,266.833 106.5,267.167 106.5,267.5C 99.8333,267.167 99.8333,266.833 106.5,266.5 Z"/></g>
<g><path style="opacity:0.012" fill="#4e074d" d="M 211.5,267.5 C 211.5,267.167 211.5,266.833 211.5,266.5C 213.167,266.5 214.833,266.5 216.5,266.5C 215.081,267.451 213.415,267.784 211.5,267.5 Z"/></g>
<g><path style="opacity:0.012" fill="#3a0a39" d="M 232.5,266.5 C 232.103,267.525 231.437,267.692 230.5,267C 231.094,266.536 231.761,266.369 232.5,266.5 Z"/></g>
<g><path style="opacity:0.004" fill="#000000" d="M 84.5,267.5 C 84.8333,267.5 85.1667,267.5 85.5,267.5C 85.3147,268.17 84.9813,268.17 84.5,267.5 Z"/></g>
<g><path style="opacity:0.008" fill="#6e156d" d="M 106.5,267.5 C 107.873,267.343 109.207,267.51 110.5,268C 108.934,268.765 107.601,268.598 106.5,267.5 Z"/></g>
<g><path style="opacity:0.008" fill="#40113f" d="M 206.5,268.5 C 206.5,268.167 206.5,267.833 206.5,267.5C 210.5,267.833 210.5,268.167 206.5,268.5 Z"/></g>
<g><path style="opacity:0.004" fill="#000000" d="M 211.5,267.5 C 210.833,268.167 210.833,268.167 211.5,267.5 Z"/></g>
<g><path style="opacity:0.008" fill="#7f0080" d="M 83.5,268.5 C 83.8333,268.5 84.1667,268.5 84.5,268.5C 84.3147,269.17 83.9813,269.17 83.5,268.5 Z"/></g>
<g><path style="opacity:0.004" fill="#000000" d="M 114.5,268.5 C 113.749,269.573 112.749,269.74 111.5,269C 112.448,268.517 113.448,268.351 114.5,268.5 Z"/></g>
<g><path style="opacity:0.004" fill="#000000" d="M 203.5,268.5 C 204.5,268.5 205.5,268.5 206.5,268.5C 205.5,269.833 204.5,269.833 203.5,268.5 Z"/></g>
<g><path style="opacity:0.008" fill="#a800a8" d="M 81.5,270.5 C 81.5,270.167 81.5,269.833 81.5,269.5C 82.1667,269.5 82.8333,269.5 83.5,269.5C 83.1583,270.338 82.4916,270.672 81.5,270.5 Z"/></g>
<g><path style="opacity:0.02" fill="#8f6c78" d="M 137.5,269.5 C 150.167,269.5 162.833,269.5 175.5,269.5C 175.5,269.833 175.5,270.167 175.5,270.5C 163.753,270.189 152.086,270.522 140.5,271.5C 139.833,270.167 139.167,270.167 138.5,271.5C 134.154,271.666 129.821,271.499 125.5,271C 129.688,270.824 133.688,270.324 137.5,269.5 Z"/></g>
<g><path style="opacity:0.012" fill="#4d084c" d="M 192.5,270.5 C 192.5,270.167 192.5,269.833 192.5,269.5C 205.833,269.833 205.833,270.167 192.5,270.5 Z"/></g>
<g><path style="opacity:0.999" fill="#e7d7b4" d="M 61.5,257.5 C 70.2268,257.197 78.5602,258.697 86.5,262C 65.2802,278.307 41.2802,284.974 14.5,282C 10.6371,280.819 7.13709,278.986 4,276.5C 3.04263,273.621 3.54263,271.121 5.5,269C 12.8333,268.333 20.1667,268.333 27.5,269C 37.802,273.731 48.4686,275.065 59.5,273C 61.2914,268.033 61.958,262.866 61.5,257.5 Z"/></g>
<g><path style="opacity:0.016" fill="#530553" d="M 175.5,270.5 C 181.167,270.5 186.833,270.5 192.5,270.5C 186.833,271.833 181.167,271.833 175.5,270.5 Z"/></g>
<g><path style="opacity:0.999" fill="#ebddb6" d="M 268.5,274.5 C 277.034,273.303 285.368,271.47 293.5,269C 300.082,268.19 306.582,268.357 313,269.5C 315.403,274.488 313.903,277.988 308.5,280C 296.539,283.097 284.539,283.263 272.5,280.5C 257.985,278.048 244.818,272.381 233,263.5C 232.316,262.216 232.483,261.049 233.5,260C 241.096,258.462 248.763,257.629 256.5,257.5C 256.334,262.179 256.501,266.845 257,271.5C 260.327,274.154 264.161,275.154 268.5,274.5 Z"/></g>
<g><path style="opacity:0.004" fill="#000000" d="M 138.5,271.5 C 139.167,271.5 139.833,271.5 140.5,271.5C 139.833,272.833 139.167,272.833 138.5,271.5 Z"/></g>
<g><path style="opacity:0.004" fill="#000000" d="M 142.5,272.5 C 144.288,271.378 146.288,271.211 148.5,272C 146.527,272.495 144.527,272.662 142.5,272.5 Z"/></g>
<g><path style="opacity:0.004" fill="#000000" d="M 162.5,272.5 C 166.311,271.355 170.311,271.188 174.5,272C 170.514,272.499 166.514,272.666 162.5,272.5 Z"/></g>
<g><path style="opacity:0.004" fill="#000000" d="M 75.5,274.5 C 75.5,274.167 75.5,273.833 75.5,273.5C 76.1667,273.5 76.8333,273.5 77.5,273.5C 77.1583,274.338 76.4916,274.672 75.5,274.5 Z"/></g>
<g><path style="opacity:0.008" fill="#710071" d="M 73.5,275.5 C 73.5,275.167 73.5,274.833 73.5,274.5C 74.1667,274.5 74.8333,274.5 75.5,274.5C 75.1583,275.338 74.4916,275.672 73.5,275.5 Z"/></g>
<g><path style="opacity:0.01" fill="#7f0080" d="M 318.5,274.5 C 318.833,274.5 319.167,274.5 319.5,274.5C 319.5,275.5 319.5,276.5 319.5,277.5C 319.167,277.5 318.833,277.5 318.5,277.5C 318.5,276.5 318.5,275.5 318.5,274.5 Z"/></g>
<g><path style="opacity:0.012" fill="#620062" d="M 71.5,276.5 C 71.5,276.167 71.5,275.833 71.5,275.5C 72.1667,275.5 72.8333,275.5 73.5,275.5C 73.1583,276.338 72.4916,276.672 71.5,276.5 Z"/></g>
<g><path style="opacity:0.004" fill="#210b1f" d="M 69.5,277.5 C 69.5,277.167 69.5,276.833 69.5,276.5C 70.1667,276.5 70.8333,276.5 71.5,276.5C 71.1583,277.338 70.4916,277.672 69.5,277.5 Z"/></g>
<g><path style="opacity:0.004" fill="#000000" d="M 68.5,277.5 C 68.8333,277.5 69.1667,277.5 69.5,277.5C 69.3147,278.17 68.9813,278.17 68.5,277.5 Z"/></g>
<g><path style="opacity:0.004" fill="#fe00ff" d="M 317.5,277.5 C 317.833,277.5 318.167,277.5 318.5,277.5C 318.315,278.17 317.981,278.17 317.5,277.5 Z"/></g>
<g><path style="opacity:0.008" fill="#7c137b" d="M 65.5,279.5 C 65.5,279.167 65.5,278.833 65.5,278.5C 66.5,278.5 67.5,278.5 68.5,278.5C 67.791,279.404 66.791,279.737 65.5,279.5 Z"/></g>
<g><path style="opacity:0.012" fill="#5f005f" d="M 62.5,280.5 C 62.5,280.167 62.5,279.833 62.5,279.5C 63.5,279.5 64.5,279.5 65.5,279.5C 64.791,280.404 63.791,280.737 62.5,280.5 Z"/></g>
<g><path style="opacity:0.008" fill="#7f0080" d="M 315.5,279.5 C 316.833,280.167 316.833,280.167 315.5,279.5 Z"/></g>
<g><path style="opacity:0.013" fill="#7f0080" d="M 59.5,281.5 C 59.5,281.167 59.5,280.833 59.5,280.5C 60.5,280.5 61.5,280.5 62.5,280.5C 61.791,281.404 60.791,281.737 59.5,281.5 Z"/></g>
<g><path style="opacity:0.004" fill="#491547" d="M 56.5,281.5 C 57.5,281.5 58.5,281.5 59.5,281.5C 57.8984,283.074 55.8984,283.741 53.5,283.5C 53.5,283.167 53.5,282.833 53.5,282.5C 54.791,282.737 55.791,282.404 56.5,281.5 Z"/></g>
<g><path style="opacity:0.004" fill="#51174f" d="M 261.5,281.5 C 262.209,282.404 263.209,282.737 264.5,282.5C 262.565,283.709 260.565,283.542 258.5,282C 259.448,281.517 260.448,281.351 261.5,281.5 Z"/></g>
<g><path style="opacity:0.008" fill="#7f0080" d="M 311.5,282.5 C 311.833,282.5 312.167,282.5 312.5,282.5C 312.315,283.17 311.981,283.17 311.5,282.5 Z"/></g>
<g><path style="opacity:0.004" fill="#52170a" d="M 51.5,283.5 C 52.1667,283.5 52.8333,283.5 53.5,283.5C 52.8333,284.833 52.1667,284.833 51.5,283.5 Z"/></g>
<g><path style="opacity:0.004" fill="#2d102b" d="M 309.5,284.5 C 309.5,284.167 309.5,283.833 309.5,283.5C 310.167,283.5 310.833,283.5 311.5,283.5C 311.158,284.338 310.492,284.672 309.5,284.5 Z"/></g>
<g><path style="opacity:0.016" fill="#8afb60" d="M 45.5,285.5 C 45.5,285.167 45.5,284.833 45.5,284.5C 52.1667,284.833 52.1667,285.167 45.5,285.5 Z"/></g>
<g><path style="opacity:0.004" fill="#a41a0a" d="M 23.5,287.5 C 22.7611,287.631 22.0944,287.464 21.5,287C 22.4368,286.308 23.1034,286.475 23.5,287.5 Z"/></g>
<g><path style="opacity:0.004" fill="#000000" d="M 30.5,287.5 C 31.2506,286.427 32.2506,286.26 33.5,287C 32.552,287.483 31.552,287.649 30.5,287.5 Z"/></g>
<g><path style="opacity:0.004" fill="#000000" d="M 287.5,287.5 C 286.761,287.631 286.094,287.464 285.5,287C 286.437,286.308 287.103,286.475 287.5,287.5 Z"/></g>
<g><path style="opacity:0.004" fill="#311430" d="M 294.5,287.5 C 295.601,286.402 296.934,286.235 298.5,287C 297.207,287.49 295.873,287.657 294.5,287.5 Z"/></g>
<g><path style="opacity:0.004" fill="#000000" d="M 23.5,287.5 C 25.8333,287.5 28.1667,287.5 30.5,287.5C 28.1667,288.833 25.8333,288.833 23.5,287.5 Z"/></g>
<g><path style="opacity:0.004" fill="#000000" d="M 287.5,287.5 C 289.833,287.5 292.167,287.5 294.5,287.5C 292.167,288.833 289.833,288.833 287.5,287.5 Z"/></g>
</svg>
